<svg xmlns="http://www.w3.org/2000/svg" xmlns:xlink="http://www.w3.org/1999/xlink" viewBox="0 0 373.95 432.14"><defs><style>.cls-1{isolation:isolate;}.cls-2{mix-blend-mode:multiply;}.cls-3,.cls-5{fill:#fff;}.cls-3,.cls-4{opacity:0;}.cls-6{opacity:0.05;}.cls-7{fill:#f9f9fa;}.cls-8{opacity:0.1;}.cls-9{fill:#f4f5f6;}.cls-10{opacity:0.14;}.cls-11{fill:#f0f1f3;}.cls-12{opacity:0.19;}.cls-13{fill:#ecedf0;}.cls-14{opacity:0.24;}.cls-15{fill:#e9eaed;}.cls-16{opacity:0.29;}.cls-17{fill:#e5e7ea;}.cls-18{opacity:0.33;}.cls-19{fill:#e1e3e8;}.cls-20{opacity:0.38;}.cls-21{fill:#dee0e5;}.cls-22{opacity:0.43;}.cls-23{fill:#dadde3;}.cls-24{opacity:0.48;}.cls-25{fill:#d6dae0;}.cls-26{opacity:0.52;}.cls-27{fill:#d3d7de;}.cls-28{opacity:0.57;}.cls-29{fill:#cfd4db;}.cls-30{opacity:0.62;}.cls-31{fill:#ccd1d9;}.cls-32{opacity:0.67;}.cls-33{fill:#c8ced6;}.cls-34{opacity:0.71;}.cls-35{fill:#c5cbd4;}.cls-36{opacity:0.76;}.cls-37{fill:#c1c8d2;}.cls-38{opacity:0.81;}.cls-39{fill:#bec6cf;}.cls-40{opacity:0.86;}.cls-41{fill:#bbc3cd;}.cls-42{opacity:0.9;}.cls-43{fill:#b7c0cb;}.cls-44{opacity:0.95;}.cls-45{fill:#b4bdc9;}.cls-46{fill:#b1bac6;}.cls-47{fill:url(#ÕÓ_È_Ó·_ÁÂ_ËÂÌÚ_7);}.cls-48{fill:url(#ÕÓ_È_Ó·_ÁÂ_ËÂÌÚ_7-2);}</style><radialGradient id="ÕÓ_È_Ó·_ÁÂ_ËÂÌÚ_7" cx="589.76" cy="15.48" r="332.33" gradientTransform="translate(-215.73) scale(0.7 1)" gradientUnits="userSpaceOnUse"><stop offset="0" stop-color="#c7cfd6"/><stop offset="1" stop-color="#fff"/></radialGradient><radialGradient id="ÕÓ_È_Ó·_ÁÂ_ËÂÌÚ_7-2" cx="589.76" cy="15.49" r="332.32" xlink:href="#ÕÓ_È_Ó·_ÁÂ_ËÂÌÚ_7"/></defs><title>pill_bottle</title><g class="cls-1"><g id="Bottle"><g class="cls-2"><ellipse class="cls-3" cx="186.97" cy="226.68" rx="186.97" ry="205.47"/></g><g class="cls-2"><g class="cls-4"><path class="cls-5" d="M.1,151.2c2.51,3.47,8.38,8.39,21.92,10.11a408.62,408.62,0,0,0,51.76,3.46c9.54,0,19.14-.37,28.9-1.17,7.66-.62,15.31-1.32,22.94-2.28,13.54-1.72,19.42-6.64,21.92-10.11a10,10,0,0,0,1.8-3.67l-.27-11c5.4-37.21-73.26-37.67-75.25-37.67s-80.65.47-75.25,37.67l-.26,11A10,10,0,0,0,.1,151.2Z" transform="translate(127.88 -5.26)"/><path class="cls-5" d="M124.38,278.24c-2.9,6.12-16.3,5.35-16.3,5.35V181.54c7.8-.26,16.45-5.93,16.45-5.93Zm30.19,12.19c0-1.32-.2-101.29-.2-101.29l.2-2.52c.18-25.35-5.5-30.62-5.5-30.62h-1.52c-2.5,3.94-8.38,8.3-21.92,10-7.63,1-15.28,1.61-22.94,2.24-9.76.79-19.36,1.14-28.9,1.14A408.21,408.21,0,0,1,22,166C8.48,164.3,2.61,159.93.1,156h-1s-5.68,5.27-5.5,30.62l.2,2.58s-.2,99.95-.2,101.26c0,14.76-.06,33.48,14.19,41,17.91,9.45,17.57,15.36,65.45,17.33h1.68c47.87-2,47.53-7.89,65.45-17.34C154.63,323.91,154.6,305.19,154.57,290.43Z" transform="translate(127.88 -5.26)"/></g><g class="cls-6"><path class="cls-7" d="M3.48,146.81c2.48,3.47,8.28,8.39,21.68,10.11a399.8,399.8,0,0,0,51.19,3.46c9.44,0,18.93-.37,28.59-1.17,7.58-.62,15.14-1.32,22.69-2.28,13.39-1.72,19.2-6.64,21.68-10.11a10.08,10.08,0,0,0,1.78-3.67l-.26-11c5.34-37.21-72.45-37.67-74.42-37.67S-3.37,94.9,2,132.1l-.26,11A10.09,10.09,0,0,0,3.48,146.81Z" transform="translate(127.88 -5.26)"/><path class="cls-7" d="M127.12,273.85c-2.9,6.12-16.3,5.35-16.3,5.35V177.15c7.8-.26,16.45-5.93,16.45-5.93ZM156.26,286c0-1.32-.2-101.29-.2-101.29l.19-2.52c.17-25.35-5.44-30.62-5.44-30.62h-1.5c-2.47,3.94-8.28,8.3-21.68,10-7.55,1-15.11,1.62-22.69,2.24-9.66.79-19.15,1.14-28.59,1.14a399.41,399.41,0,0,1-51.19-3.38c-13.39-1.71-19.2-6.09-21.68-10h-1s-5.62,5.27-5.44,30.62l.2,2.58s-.2,99.95-.2,101.26c0,14.76-.05,33.48,14,41,17.71,9.45,17.38,15.36,64.73,17.33h1.67c47.34-2,47-7.89,64.73-17.34C156.31,319.52,156.28,300.8,156.26,286Z" transform="translate(127.88 -5.26)"/></g><g class="cls-8"><path class="cls-9" d="M6.86,142.42c2.45,3.47,8.19,8.39,21.44,10.11A391.08,391.08,0,0,0,78.92,156c9.34,0,18.72-.37,28.27-1.17,7.49-.62,15-1.32,22.44-2.28,13.24-1.72,19-6.64,21.43-10.11a10.14,10.14,0,0,0,1.76-3.67l-.26-11C157.84,90.5,80.91,90,79,90S.09,90.5,5.36,127.71l-.26,11A10.15,10.15,0,0,0,6.86,142.42Z" transform="translate(127.88 -5.26)"/><path class="cls-9" d="M129.85,269.46c-2.9,6.12-16.3,5.35-16.3,5.35V172.75c7.8-.26,16.45-5.93,16.45-5.93Zm28.09,12.19c0-1.32-.2-101.29-.2-101.29l.19-2.52c.17-25.35-5.38-30.62-5.38-30.62h-1.49c-2.45,3.94-8.19,8.3-21.43,10-7.46,1-14.95,1.62-22.44,2.24-9.55.79-18.93,1.14-28.27,1.14a390.7,390.7,0,0,1-50.62-3.38c-13.24-1.71-19-6.09-21.44-10h-1S.34,152.48.51,177.82l.19,2.57S.51,280.34.51,281.66c0,14.76-.05,33.48,13.88,41C31.91,332.11,31.58,338,78.4,340H80c46.82-2,46.49-7.89,64-17.34C158,315.13,158,296.41,157.94,281.64Z" transform="translate(127.88 -5.26)"/></g><g class="cls-10"><path class="cls-11" d="M10.24,138c2.42,3.47,8.1,8.39,21.2,10.11a382.45,382.45,0,0,0,50.05,3.46c9.23,0,18.51-.37,28-1.17,7.41-.62,14.81-1.32,22.19-2.28,13.1-1.72,18.77-6.64,21.19-10.11a10.2,10.2,0,0,0,1.74-3.67l-.26-11c5.22-37.2-70.84-37.67-72.77-37.67s-78,.47-72.77,37.67l-.25,11A10.21,10.21,0,0,0,10.24,138Z" transform="translate(127.88 -5.26)"/><path class="cls-11" d="M132.58,265.06c-2.9,6.12-16.3,5.35-16.3,5.35V168.36c7.8-.26,16.45-5.93,16.45-5.93Zm27,12.19c0-1.32-.19-101.29-.19-101.29l.19-2.52c.17-25.35-5.32-30.62-5.32-30.62h-1.47c-2.42,3.94-8.1,8.3-21.19,10-7.38,1-14.78,1.62-22.19,2.24-9.44.79-18.72,1.14-28,1.14a382.08,382.08,0,0,1-50.05-3.38c-13.1-1.71-18.77-6.09-21.2-10h-1S3.79,148.08,4,173.43L4.16,176S4,276,4,277.27c0,14.76-.05,33.48,13.73,41,17.32,9.45,17,15.36,63.29,17.33h1.63c46.29-2,46-7.89,63.29-17.34C159.67,310.73,159.65,292,159.62,277.25Z" transform="translate(127.88 -5.26)"/></g><g class="cls-12"><path class="cls-13" d="M13.62,133.63c2.4,3.47,8,8.39,21,10.11a373.92,373.92,0,0,0,49.48,3.46c9.13,0,18.3-.37,27.63-1.17,7.32-.62,14.64-1.32,21.93-2.28,12.95-1.72,18.56-6.64,21-10.11A10.26,10.26,0,0,0,156.3,130l-.25-11c5.16-37.2-70-37.67-71.94-37.67S7,81.72,12.16,118.92l-.25,11A10.27,10.27,0,0,0,13.62,133.63Z" transform="translate(127.88 -5.26)"/><path class="cls-13" d="M135.31,260.67C132.42,266.79,119,266,119,266V164c7.8-.26,16.45-5.93,16.45-5.93Zm26,12.19c0-1.32-.19-101.29-.19-101.29l.19-2.52c.17-25.35-5.26-30.62-5.26-30.62h-1.45c-2.39,3.94-8,8.3-21,10-7.29,1-14.61,1.62-21.93,2.24-9.33.79-18.51,1.14-27.63,1.14a373.57,373.57,0,0,1-49.48-3.38c-12.95-1.71-18.56-6.09-21-10h-.94S7.25,143.69,7.42,169l.19,2.57s-.19,99.95-.19,101.26c0,14.76-.05,33.48,13.57,41,17.12,9.45,16.8,15.36,62.57,17.33h1.61c45.77-2,45.44-7.89,62.57-17.34C161.36,306.34,161.33,287.62,161.3,272.86Z" transform="translate(127.88 -5.26)"/></g><g class="cls-14"><path class="cls-15" d="M17,129.24c2.37,3.47,7.92,8.39,20.71,10.11a365.48,365.48,0,0,0,48.92,3.46c9,0,18.09-.37,27.32-1.17,7.24-.62,14.47-1.32,21.68-2.28,12.8-1.72,18.35-6.64,20.71-10.11a10.32,10.32,0,0,0,1.7-3.67l-.25-11c5.1-37.2-69.23-37.67-71.11-37.67s-76.22.47-71.12,37.67l-.25,11A10.34,10.34,0,0,0,17,129.24Z" transform="translate(127.88 -5.26)"/><path class="cls-15" d="M138,256.28c-2.9,6.12-16.3,5.35-16.3,5.35V159.57c7.8-.26,16.45-5.93,16.45-5.93ZM163,268.46c0-1.32-.19-101.29-.19-101.29l.19-2.52c.17-25.35-5.2-30.62-5.2-30.62h-1.44c-2.36,3.94-7.91,8.3-20.71,10-7.21,1-14.44,1.62-21.68,2.24-9.23.79-18.3,1.14-27.32,1.14a365.14,365.14,0,0,1-48.92-3.38C24.92,142.34,19.37,138,17,134h-.93s-5.37,5.27-5.2,30.62l.19,2.57s-.19,99.95-.19,101.26c0,14.76-.05,33.48,13.41,41,16.93,9.45,16.61,15.36,61.85,17.33h1.59c45.24-2,44.92-7.89,61.85-17.34C163,301.95,163,283.23,163,268.46Z" transform="translate(127.88 -5.26)"/></g><g class="cls-16"><path class="cls-17" d="M20.38,124.84c2.34,3.47,7.82,8.39,20.47,10.11a357.14,357.14,0,0,0,48.35,3.46c8.92,0,17.88-.37,27-1.17,7.16-.62,14.3-1.32,21.43-2.28,12.65-1.72,18.13-6.64,20.47-10.11a10.39,10.39,0,0,0,1.68-3.67l-.25-11c5-37.2-68.43-37.67-70.29-37.67S13.91,72.93,19,110.14l-.24,11A10.41,10.41,0,0,0,20.38,124.84Z" transform="translate(127.88 -5.26)"/><path class="cls-17" d="M140.78,251.88c-2.9,6.12-16.3,5.35-16.3,5.35V155.18c7.8-.26,16.45-5.93,16.45-5.93Zm23.89,12.19c0-1.32-.19-101.29-.19-101.29l.18-2.52c.16-25.35-5.14-30.62-5.14-30.62H158.1c-2.34,3.94-7.82,8.3-20.47,10-7.13,1-14.27,1.62-21.43,2.24-9.12.79-18.08,1.14-27,1.14a356.82,356.82,0,0,1-48.35-3.38c-12.65-1.71-18.13-6.09-20.47-10h-.92s-5.31,5.27-5.14,30.62l.18,2.57s-.18,99.95-.19,101.26c0,14.76-.05,33.48,13.26,41,16.73,9.45,16.41,15.36,61.13,17.33h1.57c44.71-2,44.4-7.89,61.13-17.34C164.72,297.55,164.7,278.84,164.67,264.07Z" transform="translate(127.88 -5.26)"/></g><g class="cls-18"><path class="cls-19" d="M23.76,120.45c2.31,3.47,7.73,8.4,20.23,10.11A348.9,348.9,0,0,0,91.77,134c8.81,0,17.67-.37,26.68-1.17,7.07-.62,14.14-1.32,21.18-2.28,12.5-1.72,17.92-6.64,20.23-10.11a10.46,10.46,0,0,0,1.66-3.67l-.25-11c5-37.2-67.62-37.67-69.46-37.67s-74.44.47-69.46,37.67l-.24,11A10.48,10.48,0,0,0,23.76,120.45Z" transform="translate(127.88 -5.26)"/><path class="cls-19" d="M143.51,247.49c-2.9,6.12-16.3,5.35-16.3,5.35V150.79c7.8-.26,16.45-5.93,16.45-5.93Zm22.84,12.19c0-1.32-.18-101.29-.18-101.29l.18-2.52c.16-25.35-5.08-30.62-5.08-30.62h-1.4c-2.31,3.94-7.73,8.3-20.23,10-7,1-14.11,1.62-21.18,2.24-9,.79-17.87,1.14-26.68,1.14A348.58,348.58,0,0,1,44,135.27c-12.5-1.71-17.92-6.09-20.23-10h-.91s-5.25,5.27-5.08,30.62l.18,2.57s-.18,99.95-.19,101.27c0,14.76-.05,33.48,13.1,41,16.53,9.45,16.22,15.36,60.41,17.33h1.56c44.19-2,43.87-7.89,60.41-17.34C166.4,293.16,166.38,274.44,166.35,259.68Z" transform="translate(127.88 -5.26)"/></g><g class="cls-20"><path class="cls-21" d="M27.15,116.06c2.29,3.47,7.64,8.4,20,10.11a340.75,340.75,0,0,0,47.21,3.46c8.71,0,17.46-.37,26.36-1.17,7-.62,14-1.32,20.93-2.28,12.35-1.72,17.71-6.64,20-10.11a10.53,10.53,0,0,0,1.64-3.67l-.24-11c4.92-37.2-66.82-37.67-68.63-37.67s-73.56.47-68.64,37.67l-.24,11A10.55,10.55,0,0,0,27.15,116.06Z" transform="translate(127.88 -5.26)"/><path class="cls-21" d="M146.24,243.1c-2.9,6.12-16.3,5.35-16.3,5.35V146.39c7.8-.26,16.45-5.93,16.45-5.93ZM168,255.28c0-1.32-.18-101.29-.18-101.29l.18-2.52c.16-25.35-5-30.62-5-30.62h-1.39c-2.28,3.94-7.64,8.3-20,10-7,1-13.94,1.62-20.93,2.24-8.91.79-17.66,1.14-26.36,1.14a340.45,340.45,0,0,1-47.21-3.38c-12.35-1.71-17.7-6.09-20-10h-.9s-5.19,5.27-5,30.62l.18,2.57s-.18,99.95-.18,101.27c0,14.76,0,33.48,12.95,41,16.34,9.45,16,15.36,59.69,17.33H95.4c43.66-2,43.35-7.89,59.69-17.34C168.09,288.77,168.06,270.05,168,255.28Z" transform="translate(127.88 -5.26)"/></g><g class="cls-22"><path class="cls-23" d="M30.53,111.66c2.26,3.47,7.55,8.4,19.75,10.11a332.7,332.7,0,0,0,46.64,3.46c8.6,0,17.25-.37,26-1.17,6.9-.62,13.8-1.32,20.67-2.28,12.2-1.72,17.49-6.64,19.75-10.11A10.6,10.6,0,0,0,165,108l-.24-11c4.86-37.2-66-37.67-67.81-37.67S24.28,59.75,29.14,97l-.24,11A10.63,10.63,0,0,0,30.53,111.66Z" transform="translate(127.88 -5.26)"/><path class="cls-23" d="M149,238.71c-2.9,6.12-16.3,5.35-16.3,5.35V142c7.8-.26,16.45-5.93,16.45-5.93Zm20.74,12.19c0-1.32-.18-101.29-.18-101.29l.18-2.52c.16-25.35-5-30.62-5-30.62h-1.37c-2.25,3.94-7.55,8.3-19.75,10-6.88,1-13.77,1.62-20.67,2.24-8.8.79-17.44,1.14-26,1.14a332.41,332.41,0,0,1-46.64-3.38c-12.2-1.71-17.49-6.09-19.75-10h-.89s-5.12,5.27-5,30.62l.18,2.57s-.18,99.95-.18,101.27c0,14.76,0,33.48,12.79,41,16.14,9.45,15.84,15.36,59,17.33H98c43.14-2,42.83-7.89,59-17.34C169.77,284.38,169.75,265.66,169.72,250.89Z" transform="translate(127.88 -5.26)"/></g><g class="cls-24"><path class="cls-25" d="M33.91,107.27c2.23,3.47,7.46,8.4,19.51,10.11a324.75,324.75,0,0,0,46.07,3.46c8.5,0,17-.37,25.73-1.17,6.82-.62,13.63-1.32,20.42-2.28,12.05-1.72,17.28-6.64,19.51-10.11a10.68,10.68,0,0,0,1.6-3.67l-.24-11c4.8-37.2-65.21-37.67-67-37.67s-71.79.47-67,37.67l-.23,11A10.7,10.7,0,0,0,33.91,107.27Z" transform="translate(127.88 -5.26)"/><path class="cls-25" d="M151.71,234.31c-2.9,6.12-16.3,5.35-16.3,5.35V137.61c7.8-.26,16.45-5.93,16.45-5.93ZM171.4,246.5l-.18-101.29.18-2.52c.16-25.35-4.9-30.62-4.9-30.62h-1.35c-2.23,3.94-7.45,8.3-19.51,10-6.79,1-13.6,1.62-20.42,2.24-8.69.79-17.23,1.14-25.73,1.14a324.47,324.47,0,0,1-46.07-3.38c-12.05-1.71-17.28-6.09-19.51-10H33s-5.06,5.27-4.9,30.62l.18,2.57s-.18,99.95-.18,101.27c0,14.76,0,33.47,12.63,41C56.7,297,56.4,302.87,99,304.84h1.5c42.61-2,42.31-7.89,58.26-17.34C171.45,280,171.43,261.26,171.4,246.5Z" transform="translate(127.88 -5.26)"/></g><g class="cls-26"><path class="cls-27" d="M37.29,102.88c2.2,3.47,7.36,8.4,19.27,10.11a316.89,316.89,0,0,0,45.5,3.46c8.39,0,16.83-.37,25.41-1.17,6.73-.62,13.46-1.32,20.17-2.28,11.9-1.72,17.07-6.65,19.27-10.11a10.76,10.76,0,0,0,1.58-3.67l-.24-11C173,51,103.85,50.5,102.1,50.5S31.2,51,35.94,88.17l-.23,11A10.79,10.79,0,0,0,37.29,102.88Z" transform="translate(127.88 -5.26)"/><path class="cls-27" d="M154.44,229.92c-2.9,6.12-16.3,5.35-16.3,5.35V133.22c7.8-.26,16.45-5.93,16.45-5.93Zm18.65,12.19c0-1.32-.18-101.29-.18-101.29l.17-2.52c.15-25.35-4.84-30.62-4.84-30.62H166.9c-2.2,3.94-7.36,8.3-19.27,10-6.71,1-13.44,1.62-20.17,2.24-8.58.79-17,1.14-25.41,1.14a316.62,316.62,0,0,1-45.5-3.38c-11.91-1.71-17.06-6.09-19.27-10h-.86s-5,5.27-4.84,30.62l.17,2.57s-.17,99.95-.18,101.27c0,14.76,0,33.47,12.48,41,15.75,9.45,15.45,15.36,57.53,17.33h1.48c42.08-2,41.79-7.89,57.54-17.34C173.13,275.59,173.11,256.87,173.08,242.11Z" transform="translate(127.88 -5.26)"/></g><g class="cls-28"><path class="cls-29" d="M40.67,98.49c2.18,3.47,7.27,8.4,19,10.11a309.13,309.13,0,0,0,44.93,3.46c8.29,0,16.62-.37,25.09-1.17,6.65-.62,13.29-1.32,19.92-2.28,11.76-1.72,16.85-6.65,19-10.11a10.84,10.84,0,0,0,1.56-3.67l-.23-11c4.69-37.2-63.6-37.67-65.33-37.67s-70,.47-65.33,37.67l-.23,11A10.87,10.87,0,0,0,40.67,98.49Z" transform="translate(127.88 -5.26)"/><path class="cls-29" d="M157.17,225.53c-2.9,6.12-16.3,5.35-16.3,5.35V128.82c7.8-.26,16.45-5.93,16.45-5.93Zm17.6,12.19c0-1.32-.17-101.29-.17-101.29l.17-2.52c.15-25.35-4.78-30.62-4.78-30.62h-1.32c-2.17,3.94-7.27,8.3-19,10-6.62,1-13.27,1.62-19.92,2.24-8.48.79-16.81,1.14-25.09,1.14a308.87,308.87,0,0,1-44.93-3.38c-11.76-1.71-16.85-6.09-19-10h-.85S34.88,108.55,35,133.9l.17,2.57S35,236.42,35,237.73c0,14.76,0,33.47,12.32,41,15.55,9.45,15.26,15.36,56.82,17.33h1.46c41.56-2,41.26-7.89,56.82-17.34C174.82,271.2,174.79,252.48,174.77,237.71Z" transform="translate(127.88 -5.26)"/></g><g class="cls-30"><path class="cls-31" d="M44,94.09c2.15,3.47,7.18,8.4,18.79,10.11a301.46,301.46,0,0,0,44.37,3.46c8.18,0,16.41-.38,24.78-1.17,6.57-.62,13.13-1.32,19.67-2.28,11.61-1.72,16.64-6.65,18.78-10.11A10.92,10.92,0,0,0,172,90.42l-.23-11c4.63-37.2-62.79-37.67-64.5-37.67s-69.13.47-64.5,37.67l-.23,11A11,11,0,0,0,44,94.09Z" transform="translate(127.88 -5.26)"/><path class="cls-31" d="M159.9,221.13c-2.9,6.12-16.3,5.35-16.3,5.35V124.43c7.8-.26,16.45-5.93,16.45-5.93Zm16.55,12.19c0-1.32-.17-101.29-.17-101.29l.17-2.52c.15-25.35-4.72-30.62-4.72-30.62h-1.3c-2.14,3.94-7.18,8.3-18.78,10-6.54,1-13.1,1.62-19.67,2.24-8.37.79-16.59,1.14-24.78,1.14a301.21,301.21,0,0,1-44.37-3.38c-11.61-1.71-16.64-6.09-18.79-10H43.2s-4.87,5.27-4.72,30.62l.17,2.57s-.17,99.95-.17,101.27c0,14.76,0,33.47,12.17,41,15.35,9.45,15.06,15.36,56.1,17.33h1.45c41-2,40.74-7.89,56.1-17.34C176.5,266.8,176.48,248.09,176.45,233.32Z" transform="translate(127.88 -5.26)"/></g><g class="cls-32"><path class="cls-33" d="M47.43,89.7c2.12,3.47,7.09,8.4,18.55,10.11a293.89,293.89,0,0,0,43.8,3.46c8.08,0,16.2-.38,24.46-1.17,6.48-.62,13-1.32,19.41-2.28,11.46-1.72,16.43-6.65,18.54-10.12A11,11,0,0,0,173.71,86l-.23-11c4.57-37.2-62-37.67-63.67-37.67S41.57,37.79,46.13,75l-.22,11A11,11,0,0,0,47.43,89.7Z" transform="translate(127.88 -5.26)"/><path class="cls-33" d="M162.64,216.74c-2.9,6.12-16.3,5.34-16.3,5.34V120c7.8-.26,16.45-5.93,16.45-5.93Zm15.5,12.19c0-1.32-.17-101.29-.17-101.29l.17-2.52c.15-25.35-4.66-30.62-4.66-30.62h-1.29c-2.12,3.94-7.08,8.3-18.54,10-6.46,1-12.93,1.62-19.41,2.24-8.26.79-16.38,1.14-24.46,1.14A293.65,293.65,0,0,1,66,104.52c-11.46-1.71-16.42-6.09-18.55-10H46.6s-4.81,5.27-4.66,30.62l.17,2.57s-.17,99.95-.17,101.27c0,14.76,0,33.47,12,41,15.16,9.45,14.87,15.36,55.38,17.33h1.43c40.51-2,40.22-7.89,55.38-17.34C178.18,262.41,178.16,243.69,178.13,228.93Z" transform="translate(127.88 -5.26)"/></g><g class="cls-34"><path class="cls-35" d="M50.81,85.31c2.09,3.47,7,8.4,18.3,10.11a286.42,286.42,0,0,0,43.23,3.46c8,0,16-.38,24.14-1.17,6.4-.62,12.79-1.32,19.16-2.28,11.31-1.72,16.21-6.65,18.3-10.12a11.1,11.1,0,0,0,1.5-3.67l-.22-11c4.51-37.2-61.18-37.67-62.85-37.67S45,33.4,49.53,70.6l-.22,11A11.14,11.14,0,0,0,50.81,85.31Z" transform="translate(127.88 -5.26)"/><path class="cls-35" d="M165.37,212.35c-2.9,6.12-16.3,5.34-16.3,5.34V115.64c7.8-.26,16.45-5.93,16.45-5.93Zm14.45,12.19c0-1.32-.17-101.29-.17-101.29l.16-2.52c.15-25.35-4.6-30.62-4.6-30.62h-1.27c-2.09,3.94-7,8.3-18.3,10-6.37,1-12.76,1.62-19.16,2.24-8.15.79-16.17,1.14-24.14,1.14a286.19,286.19,0,0,1-43.23-3.38C57.8,98.41,52.9,94,50.81,90.1H50s-4.75,5.27-4.6,30.62l.16,2.57s-.16,99.95-.17,101.27c0,14.76,0,33.47,11.86,41,15,9.45,14.68,15.36,54.66,17.33h1.41c40-2,39.7-7.89,54.66-17.34C179.86,258,179.84,239.3,179.82,224.53Z" transform="translate(127.88 -5.26)"/></g><g class="cls-36"><path class="cls-37" d="M54.19,80.91c2.07,3.47,6.9,8.4,18.06,10.11a279,279,0,0,0,42.66,3.46c7.87,0,15.78-.38,23.82-1.17C145,92.69,151.36,92,157.64,91c11.16-1.72,16-6.65,18.06-10.12a11.2,11.2,0,0,0,1.48-3.67l-.22-11c4.45-37.2-60.38-37.67-62-37.67s-66.47.47-62,37.67l-.22,11A11.24,11.24,0,0,0,54.19,80.91Z" transform="translate(127.88 -5.26)"/><path class="cls-37" d="M168.1,208c-2.9,6.12-16.3,5.34-16.3,5.34V111.25c7.8-.25,16.44-5.93,16.44-5.93Zm13.4,12.18c0-1.32-.16-101.29-.16-101.29l.16-2.52C181.64,91,177,85.7,177,85.7h-1.25c-2.06,3.94-6.9,8.3-18.06,10-6.29,1-12.6,1.62-18.91,2.24-8,.79-16,1.14-23.82,1.14a278.82,278.82,0,0,1-42.66-3.38c-11.16-1.71-16-6.09-18.06-10h-.81S48.69,91,48.84,116.32L49,118.9s-.16,99.95-.17,101.27c0,14.76,0,33.47,11.7,41,14.76,9.45,14.48,15.36,53.94,17.33h1.39c39.45-2,39.17-7.89,53.94-17.34C181.55,253.63,181.52,234.91,181.5,220.14Z" transform="translate(127.88 -5.26)"/></g><g class="cls-38"><path class="cls-39" d="M57.57,76.52c2,3.47,6.81,8.4,17.82,10.11a271.77,271.77,0,0,0,42.09,3.46c7.76,0,15.57-.38,23.5-1.17,6.23-.62,12.45-1.32,18.66-2.28,11-1.72,15.79-6.65,17.82-10.12a11.29,11.29,0,0,0,1.46-3.67l-.22-11c4.39-37.2-59.57-37.67-61.19-37.67s-65.58.47-61.19,37.67l-.22,11A11.34,11.34,0,0,0,57.57,76.52Z" transform="translate(127.88 -5.26)"/><path class="cls-39" d="M170.83,203.56c-2.9,6.12-16.3,5.34-16.3,5.34V106.86c7.8-.25,16.44-5.93,16.44-5.93Zm12.35,12.18c0-1.32-.16-101.29-.16-101.29l.16-2.52c.14-25.35-4.48-30.62-4.48-30.62h-1.24c-2,3.94-6.81,8.3-17.82,10-6.2,1-12.43,1.62-18.66,2.24-7.94.79-15.74,1.14-23.5,1.14a271.55,271.55,0,0,1-42.09-3.38c-11-1.71-15.78-6.09-17.82-10h-.8s-4.62,5.27-4.48,30.62l.16,2.57s-.16,99.95-.16,101.27c0,14.76,0,33.47,11.54,41,14.57,9.45,14.29,15.36,53.22,17.33h1.37c38.93-2,38.65-7.89,53.22-17.34C183.23,249.23,183.21,230.52,183.18,215.75Z" transform="translate(127.88 -5.26)"/></g><g class="cls-40"><path class="cls-41" d="M60.95,72.13c2,3.47,6.72,8.4,17.58,10.11a264.58,264.58,0,0,0,41.52,3.46,229.88,229.88,0,0,0,23.19-1.17c6.15-.62,12.29-1.32,18.41-2.28,10.86-1.72,15.57-6.65,17.58-10.12a11.4,11.4,0,0,0,1.44-3.67l-.22-11c4.33-37.2-58.77-37.67-60.36-37.67s-64.7.47-60.37,37.67l-.21,11A11.44,11.44,0,0,0,60.95,72.13Z" transform="translate(127.88 -5.26)"/><path class="cls-41" d="M173.56,199.17c-2.9,6.12-16.3,5.34-16.3,5.34V102.46c7.8-.25,16.44-5.93,16.44-5.93Zm11.3,12.18c0-1.32-.16-101.29-.16-101.29l.16-2.52c.14-25.35-4.42-30.62-4.42-30.62h-1.22c-2,3.94-6.72,8.31-17.58,10-6.12,1-12.26,1.62-18.41,2.24a230.16,230.16,0,0,1-23.19,1.14,264.38,264.38,0,0,1-41.52-3.38c-10.86-1.71-15.57-6.09-17.58-10h-.79s-4.56,5.27-4.42,30.62l.16,2.57s-.16,99.95-.16,101.27c0,14.76,0,33.47,11.39,41,14.37,9.45,14.1,15.36,52.5,17.33H121c38.4-2,38.13-7.89,52.5-17.34C184.91,244.84,184.89,226.12,184.87,211.35Z" transform="translate(127.88 -5.26)"/></g><g class="cls-42"><path class="cls-43" d="M64.33,67.73c2,3.47,6.63,8.4,17.34,10.11a257.5,257.5,0,0,0,41,3.46,223.77,223.77,0,0,0,22.87-1.17c6.06-.62,12.12-1.32,18.15-2.28C174.36,76.13,179,71.2,181,67.73a11.5,11.5,0,0,0,1.42-3.67l-.21-11c4.27-37.2-58-37.67-59.54-37.67S58.85,15.83,63.12,53l-.21,11A11.55,11.55,0,0,0,64.33,67.73Z" transform="translate(127.88 -5.26)"/><path class="cls-43" d="M176.3,194.78c-2.9,6.12-16.3,5.34-16.3,5.34V98.07c7.8-.25,16.44-5.93,16.44-5.93ZM186.55,207c0-1.32-.16-101.29-.16-101.29l.16-2.52c.14-25.35-4.36-30.62-4.36-30.62H181c-2,3.94-6.62,8.31-17.34,10-6,1-12.09,1.62-18.15,2.24a223.92,223.92,0,0,1-22.87,1.14,257.3,257.3,0,0,1-41-3.38c-10.71-1.71-15.36-6.09-17.34-10h-.78s-4.5,5.27-4.36,30.62l.16,2.57S59.2,205.67,59.19,207c0,14.76,0,33.47,11.23,41,14.17,9.45,13.9,15.36,51.78,17.33h1.34c37.88-2,37.61-7.89,51.78-17.34C186.59,240.45,186.57,221.73,186.55,207Z" transform="translate(127.88 -5.26)"/></g><g class="cls-44"><path class="cls-45" d="M67.71,63.34c2,3.47,6.53,8.4,17.1,10.11a250.51,250.51,0,0,0,40.38,3.46,217.74,217.74,0,0,0,22.55-1.17c6-.62,11.95-1.32,17.9-2.28,10.57-1.72,15.15-6.65,17.1-10.12a11.61,11.61,0,0,0,1.4-3.67l-.21-11C188.15,11.43,126.78,11,125.23,11s-62.92.47-58.71,37.67l-.21,11A11.67,11.67,0,0,0,67.71,63.34Z" transform="translate(127.88 -5.26)"/><path class="cls-45" d="M179,190.38c-2.9,6.12-16.3,5.34-16.3,5.34V93.68c7.8-.25,16.44-5.93,16.44-5.93Zm9.2,12.18c0-1.32-.15-101.29-.15-101.29l.15-2.52c.14-25.35-4.3-30.62-4.3-30.62h-1.19c-2,3.94-6.53,8.31-17.1,10-6,1-11.93,1.62-17.9,2.24a217.77,217.77,0,0,1-22.55,1.14,250.32,250.32,0,0,1-40.38-3.38c-10.57-1.71-15.14-6.09-17.1-10h-.77s-4.44,5.27-4.3,30.62l.15,2.57s-.15,100-.16,101.27c0,14.76,0,33.47,11.08,41,14,9.45,13.71,15.36,51.06,17.33h1.32c37.35-2,37.09-7.89,51.06-17.34C188.27,236.05,188.25,217.34,188.23,202.57Z" transform="translate(127.88 -5.26)"/></g><path class="cls-46" d="M71.09,58.95C73,62.42,77.53,67.35,88,69.06a243.62,243.62,0,0,0,39.82,3.46A211.79,211.79,0,0,0,150,71.35c5.89-.62,11.78-1.32,17.65-2.28,10.42-1.72,14.93-6.65,16.86-10.12a11.72,11.72,0,0,0,1.38-3.67l-.21-11C189.83,7,129.33,6.58,127.8,6.57S65.76,7,69.91,44.24l-.2,11A11.78,11.78,0,0,0,71.09,58.95Z" transform="translate(127.88 -5.26)"/><path class="cls-46" d="M181.76,186c-2.9,6.12-16.3,5.34-16.3,5.34V89.29c7.8-.25,16.44-5.93,16.44-5.93Zm8.15,12.18c0-1.32-.15-101.29-.15-101.29l.15-2.52c.13-25.35-4.24-30.62-4.24-30.62h-1.17c-1.92,3.94-6.44,8.31-16.86,10-5.87,1-11.76,1.62-17.65,2.24a211.71,211.71,0,0,1-22.23,1.14A243.43,243.43,0,0,1,88,73.77c-10.42-1.71-14.93-6.09-16.86-10h-.75S66,69,66.1,94.36l.15,2.57s-.15,100-.15,101.27c0,14.76,0,33.47,10.92,41,13.78,9.45,13.52,15.36,50.34,17.32h1.3c36.82-2,36.56-7.89,50.34-17.34C190,231.66,189.94,212.94,189.91,198.18Z" transform="translate(127.88 -5.26)"/></g><path class="cls-5" d="M72,57.64c1.93,3.47,6.44,8.39,16.86,10.11a243.48,243.48,0,0,0,39.82,3.45A209.47,209.47,0,0,0,150.92,70c5.89-.62,11.78-1.32,17.65-2.28C179,66,183.5,61.11,185.43,57.64A11.67,11.67,0,0,0,186.81,54l-.2-11c4.15-37.2-56.35-37.66-57.88-37.67s-62,.47-57.89,37.67l-.2,11A11.69,11.69,0,0,0,72,57.64Z" transform="translate(127.88 -5.26)"/><path class="cls-5" d="M190.83,196.87c0-1.32-.16-101.29-.16-101.29l.15-2.52c.14-25.35-4.23-30.62-4.23-30.62h-1.17c-1.93,3.94-6.44,8.3-16.86,10-5.87,1-11.75,1.61-17.65,2.24a210.41,210.41,0,0,1-22.23,1.14,243.29,243.29,0,0,1-39.82-3.37c-10.42-1.72-14.93-6.1-16.86-10h-.76S66.88,67.71,67,93l.15,2.58S67,195.57,67,196.89c0,14.76,0,33.48,10.92,41,13.78,9.45,13.52,15.36,50.34,17.33h1.29c36.82-2,36.56-7.89,50.34-17.34C190.88,230.35,190.86,211.63,190.83,196.87Zm-8.16-12.19c-2.89,6.12-16.3,5.35-16.3,5.35V88c7.8-.26,16.45-5.93,16.45-5.93Z" transform="translate(127.88 -5.26)"/><path class="cls-47" d="M71.09,58.95C73,62.42,77.53,67.35,88,69.06a243.62,243.62,0,0,0,39.82,3.46A211.79,211.79,0,0,0,150,71.35c5.89-.62,11.78-1.32,17.65-2.28,10.42-1.72,14.93-6.65,16.86-10.12a11.72,11.72,0,0,0,1.38-3.67l-.21-11C189.83,7,129.33,6.58,127.8,6.57S65.76,7,69.91,44.24l-.2,11A11.78,11.78,0,0,0,71.09,58.95Z" transform="translate(127.88 -5.26)"/><path class="cls-48" d="M189.91,198.18c0-1.32-.15-101.29-.15-101.29l.15-2.52c.13-25.35-4.24-30.62-4.24-30.62h-1.17c-1.92,3.94-6.44,8.31-16.86,10-5.87,1-11.76,1.62-17.65,2.24a211.71,211.71,0,0,1-22.23,1.14A243.43,243.43,0,0,1,88,73.77c-10.42-1.71-14.93-6.09-16.86-10h-.75S66,69,66.1,94.36l.15,2.57s-.15,100-.15,101.27c0,14.76,0,33.47,10.92,41,13.78,9.45,13.52,15.36,50.34,17.32h1.3c36.82-2,36.56-7.89,50.34-17.34C190,231.66,189.94,212.94,189.91,198.18ZM181.76,186c-2.9,6.12-16.3,5.34-16.3,5.34V89.29c7.8-.25,16.44-5.93,16.44-5.93Z" transform="translate(127.88 -5.26)"/></g></g></svg>