<svg xmlns="http://www.w3.org/2000/svg" xmlns:xlink="http://www.w3.org/1999/xlink" viewBox="0 0 329.41 329"><defs><style>.cls-1{isolation:isolate;}.cls-2{mix-blend-mode:multiply;}.cls-3,.cls-38{fill:#fff;}.cls-3,.cls-37{opacity:0;}.cls-4{fill:#fafafb;opacity:0.04;}.cls-5{fill:#f6f6f7;opacity:0.08;}.cls-6{fill:#f3f3f4;opacity:0.12;}.cls-7{fill:#eff0f2;opacity:0.15;}.cls-46,.cls-8{fill:#ecedf0;}.cls-8{opacity:0.19;}.cls-9{fill:#e9ebed;opacity:0.23;}.cls-10{fill:#e6e8eb;opacity:0.27;}.cls-11{fill:#e3e5e9;opacity:0.31;}.cls-12{fill:#e0e3e7;opacity:0.35;}.cls-13{fill:#dde0e5;opacity:0.38;}.cls-14{fill:#dadee3;opacity:0.42;}.cls-15{fill:#d7dbe1;opacity:0.46;}.cls-16{fill:#d4d9df;opacity:0.5;}.cls-17{fill:#d2d6dd;opacity:0.54;}.cls-18,.cls-62{fill:#cfd4db;}.cls-18{opacity:0.58;}.cls-19,.cls-64{fill:#ccd1d9;}.cls-19{opacity:0.62;}.cls-20{fill:#c9cfd7;opacity:0.65;}.cls-21{fill:#c6cdd5;opacity:0.69;}.cls-22{fill:#c4cad3;opacity:0.73;}.cls-23{fill:#c1c8d1;opacity:0.77;}.cls-24,.cls-72{fill:#bec6cf;}.cls-24{opacity:0.81;}.cls-25{fill:#bcc3ce;opacity:0.85;}.cls-26{fill:#b9c1cc;opacity:0.88;}.cls-27{fill:#b6bfca;opacity:0.92;}.cls-28{fill:#b3bdc8;opacity:0.96;}.cls-29{fill:#b1bac6;}.cls-30{fill:url(#radial-gradient);}.cls-31{fill:url(#radial-gradient-2);}.cls-32{fill:url(#radial-gradient-3);}.cls-33{fill:url(#radial-gradient-4);}.cls-34{fill:url(#radial-gradient-5);}.cls-35{fill:url(#radial-gradient-6);}.cls-36{fill:url(#ÕÓ_È_Ó·_ÁÂ_ËÂÌÚ_7);}.cls-39{opacity:0.05;}.cls-40{fill:#f9f9fa;}.cls-41{opacity:0.1;}.cls-42{fill:#f4f5f6;}.cls-43{opacity:0.14;}.cls-44{fill:#f0f1f3;}.cls-45{opacity:0.19;}.cls-47{opacity:0.24;}.cls-48{fill:#e9eaed;}.cls-49{opacity:0.29;}.cls-50{fill:#e5e7ea;}.cls-51{opacity:0.33;}.cls-52{fill:#e1e3e8;}.cls-53{opacity:0.38;}.cls-54{fill:#dee0e5;}.cls-55{opacity:0.43;}.cls-56{fill:#dadde3;}.cls-57{opacity:0.48;}.cls-58{fill:#d6dae0;}.cls-59{opacity:0.52;}.cls-60{fill:#d3d7de;}.cls-61{opacity:0.57;}.cls-63{opacity:0.62;}.cls-65{opacity:0.67;}.cls-66{fill:#c8ced6;}.cls-67{opacity:0.71;}.cls-68{fill:#c5cbd4;}.cls-69{opacity:0.76;}.cls-70{fill:#c1c8d2;}.cls-71{opacity:0.81;}.cls-73{opacity:0.86;}.cls-74{fill:#bbc3cd;}.cls-75{opacity:0.9;}.cls-76{fill:#b7c0cb;}.cls-77{opacity:0.95;}.cls-78{fill:#b4bdc9;}.cls-79{fill:url(#ÕÓ_È_Ó·_ÁÂ_ËÂÌÚ_7-2);}.cls-80{fill:url(#ÕÓ_È_Ó·_ÁÂ_ËÂÌÚ_7-3);}</style><radialGradient id="radial-gradient" cx="259.55" cy="73.24" r="131.59" gradientUnits="userSpaceOnUse"><stop offset="0" stop-color="#fff"/><stop offset="0.51" stop-color="#fdfdfe"/><stop offset="0.69" stop-color="#f6f8f9"/><stop offset="0.82" stop-color="#ebedf0"/><stop offset="0.92" stop-color="#dadfe4"/><stop offset="1" stop-color="#c7cfd6"/></radialGradient><radialGradient id="radial-gradient-2" cx="262" cy="65.73" r="153.55" gradientUnits="userSpaceOnUse"><stop offset="0" stop-color="#f3f4f5"/><stop offset="0.44" stop-color="#f1f2f3"/><stop offset="0.69" stop-color="#e8ebee"/><stop offset="0.89" stop-color="#dbe0e4"/><stop offset="1" stop-color="#cfd6dc"/></radialGradient><radialGradient id="radial-gradient-3" cx="264.39" cy="58.39" r="176.34" gradientUnits="userSpaceOnUse"><stop offset="0" stop-color="#eaecee"/><stop offset="0.49" stop-color="#e7e9ec"/><stop offset="0.88" stop-color="#dde1e5"/><stop offset="1" stop-color="#d8dde2"/></radialGradient><radialGradient id="radial-gradient-4" cx="266.72" cy="51.22" r="199.96" gradientUnits="userSpaceOnUse"><stop offset="0" stop-color="#e1e4e8"/><stop offset="1" stop-color="#e1e4e8"/></radialGradient><radialGradient id="radial-gradient-5" cx="268.98" cy="44.21" r="224.39" gradientUnits="userSpaceOnUse"><stop offset="0" stop-color="#d8dde2"/><stop offset="0.52" stop-color="#dfe3e7"/><stop offset="1" stop-color="#eaecee"/></radialGradient><radialGradient id="radial-gradient-6" cx="271.17" cy="37.38" r="249.6" gradientUnits="userSpaceOnUse"><stop offset="0" stop-color="#cfd6dc"/><stop offset="0.45" stop-color="#dde1e6"/><stop offset="1" stop-color="#f3f4f5"/></radialGradient><radialGradient id="ÕÓ_È_Ó·_ÁÂ_ËÂÌÚ_7" cx="273.3" cy="30.72" r="275.56" gradientUnits="userSpaceOnUse"><stop offset="0" stop-color="#c7cfd6"/><stop offset="1" stop-color="#fff"/></radialGradient><radialGradient id="ÕÓ_È_Ó·_ÁÂ_ËÂÌÚ_7-2" cx="269.38" cy="60.03" r="216.01" xlink:href="#ÕÓ_È_Ó·_ÁÂ_ËÂÌÚ_7"/><radialGradient id="ÕÓ_È_Ó·_ÁÂ_ËÂÌÚ_7-3" cx="269.38" cy="60.03" r="216.01" xlink:href="#ÕÓ_È_Ó·_ÁÂ_ËÂÌÚ_7"/></defs><title>pill_bottle</title><g class="cls-1"><g id="Bottle_on_circle" data-name="Bottle on circle"><g class="cls-2"><circle class="cls-3" cx="133.55" cy="195.45" r="133.55"/><circle class="cls-4" cx="136.01" cy="192.99" r="133.46"/><circle class="cls-5" cx="138.46" cy="190.53" r="133.36"/><circle class="cls-6" cx="140.92" cy="188.08" r="133.27"/><circle class="cls-7" cx="143.37" cy="185.62" r="133.17"/><circle class="cls-8" cx="145.83" cy="183.17" r="133.08"/><circle class="cls-9" cx="148.28" cy="180.71" r="132.98"/><circle class="cls-10" cx="150.74" cy="178.26" r="132.88"/><circle class="cls-11" cx="153.19" cy="175.8" r="132.79"/><circle class="cls-12" cx="155.65" cy="173.34" r="132.69"/><circle class="cls-13" cx="158.1" cy="170.89" r="132.6"/><circle class="cls-14" cx="160.56" cy="168.43" r="132.5"/><circle class="cls-15" cx="163.01" cy="165.98" r="132.41"/><circle class="cls-16" cx="165.47" cy="163.52" r="132.31"/><circle class="cls-17" cx="167.93" cy="161.06" r="132.22"/><circle class="cls-18" cx="170.38" cy="158.61" r="132.12"/><circle class="cls-19" cx="172.84" cy="156.15" r="132.02"/><circle class="cls-20" cx="175.29" cy="153.7" r="131.93"/><circle class="cls-21" cx="177.75" cy="151.24" r="131.83"/><circle class="cls-22" cx="180.2" cy="148.79" r="131.74"/><circle class="cls-23" cx="182.66" cy="146.33" r="131.64"/><circle class="cls-24" cx="185.11" cy="143.87" r="131.55"/><circle class="cls-25" cx="187.57" cy="141.42" r="131.45"/><circle class="cls-26" cx="190.02" cy="138.96" r="131.36"/><circle class="cls-27" cx="192.48" cy="136.51" r="131.26"/><circle class="cls-28" cx="194.93" cy="134.05" r="131.17"/><circle class="cls-29" cx="197.39" cy="131.59" r="131.07"/></g><circle class="cls-30" cx="197.81" cy="131.59" r="131.59"/><circle class="cls-31" cx="197.81" cy="131.59" r="130.23"/><circle class="cls-32" cx="197.81" cy="131.59" r="128.87"/><circle class="cls-33" cx="197.81" cy="131.59" r="127.52"/><circle class="cls-34" cx="197.81" cy="131.59" r="126.16"/><circle class="cls-35" cx="197.81" cy="131.59" r="124.8"/><circle class="cls-36" cx="197.81" cy="131.59" r="123.44"/><g class="cls-2"><g class="cls-37"><path class="cls-38" d="M99.09,148.25c1.79,2.26,6,5.46,15.66,6.57a320.32,320.32,0,0,0,37,2.25c6.82,0,13.67-.24,20.65-.76,5.47-.4,10.94-.86,16.39-1.48,9.67-1.12,13.87-4.32,15.65-6.57a6.25,6.25,0,0,0,1.28-2.39l-.19-7.17c3.86-24.18-52.33-24.48-53.75-24.49s-57.61.3-53.75,24.49l-.19,7.17A6.25,6.25,0,0,0,99.09,148.25Z" transform="translate(-7.67 -5.28)"/><path class="cls-38" d="M201.86,230.82c-2.69,4-15.14,3.48-15.14,3.48V168c7.25-.17,15.27-3.86,15.27-3.86Zm7.57,7.92c0-.86-.14-65.84-.14-65.84l.14-1.64c.13-16.48-3.93-19.91-3.93-19.91h-1.09c-1.79,2.56-6,5.4-15.65,6.51-5.45.63-10.92,1-16.39,1.45-7,.51-13.83.74-20.65.74a320,320,0,0,1-37-2.19c-9.67-1.11-13.86-4-15.66-6.52h-.7s-4.06,3.43-3.93,19.9l.14,1.67s-.14,65-.14,65.82c0,9.6,0,21.76,10.14,26.65,12.79,6.14,12.55,10,46.75,11.26h1.2c34.19-1.28,34-5.13,46.75-11.27C209.47,260.51,209.45,248.34,209.43,238.74Z" transform="translate(-7.67 -5.28)"/></g><g class="cls-39"><path class="cls-40" d="M101.63,145.39c1.79,2.26,6,5.46,15.66,6.57a320.35,320.35,0,0,0,37,2.25c6.82,0,13.67-.24,20.65-.76,5.47-.4,10.94-.86,16.39-1.48,9.67-1.12,13.87-4.32,15.65-6.57a6.25,6.25,0,0,0,1.28-2.39l-.19-7.17c3.86-24.18-52.33-24.49-53.75-24.49s-57.61.3-53.75,24.49l-.19,7.17A6.26,6.26,0,0,0,101.63,145.39Z" transform="translate(-7.67 -5.28)"/><path class="cls-40" d="M204.39,228c-2.69,4-15.14,3.48-15.14,3.48V165.11c7.25-.17,15.27-3.86,15.27-3.86Zm7.57,7.92c0-.86-.14-65.84-.14-65.84l.14-1.64c.13-16.48-3.93-19.91-3.93-19.91h-1.09c-1.79,2.56-6,5.4-15.65,6.51-5.45.63-10.92,1-16.39,1.45-7,.51-13.83.74-20.65.74a320.06,320.06,0,0,1-37-2.19c-9.67-1.11-13.86-4-15.66-6.52h-.7s-4.06,3.43-3.93,19.9l.14,1.67S97,235,97,235.9c0,9.6,0,21.76,10.14,26.65,12.79,6.14,12.55,10,46.75,11.26h1.2c34.19-1.28,34-5.13,46.75-11.27C212,257.65,212,245.48,212,235.89Z" transform="translate(-7.67 -5.28)"/></g><g class="cls-41"><path class="cls-42" d="M104.17,142.53c1.79,2.26,6,5.46,15.66,6.57a320.39,320.39,0,0,0,37,2.25c6.82,0,13.67-.24,20.65-.76,5.47-.4,10.94-.86,16.39-1.48,9.67-1.12,13.87-4.32,15.65-6.57a6.26,6.26,0,0,0,1.28-2.39l-.19-7.17c3.86-24.18-52.33-24.49-53.75-24.49s-57.61.3-53.75,24.49l-.19,7.17A6.26,6.26,0,0,0,104.17,142.53Z" transform="translate(-7.67 -5.28)"/><path class="cls-42" d="M206.93,225.11c-2.69,4-15.14,3.48-15.14,3.48V162.25c7.25-.17,15.27-3.86,15.27-3.86ZM214.5,233c0-.86-.14-65.84-.14-65.84l.14-1.64c.13-16.48-3.93-19.91-3.93-19.91h-1.09c-1.79,2.56-6,5.4-15.65,6.51-5.45.63-10.92,1.05-16.39,1.45-7,.51-13.83.74-20.65.74a320.1,320.1,0,0,1-37-2.19c-9.67-1.11-13.86-4-15.66-6.52h-.7s-4.06,3.43-3.93,19.9l.14,1.67s-.14,65-.14,65.82c0,9.6,0,21.76,10.14,26.65,12.79,6.14,12.55,10,46.75,11.26h1.2c34.19-1.28,34-5.13,46.75-11.27C214.54,254.8,214.52,242.63,214.5,233Z" transform="translate(-7.67 -5.28)"/></g><g class="cls-43"><path class="cls-44" d="M106.7,139.68c1.79,2.26,6,5.46,15.66,6.57a320.42,320.42,0,0,0,37,2.25c6.82,0,13.67-.24,20.65-.76,5.47-.4,10.94-.86,16.39-1.48,9.67-1.12,13.87-4.32,15.65-6.57a6.26,6.26,0,0,0,1.28-2.39l-.19-7.17c3.86-24.18-52.33-24.49-53.75-24.49s-57.61.3-53.75,24.49l-.19,7.17A6.26,6.26,0,0,0,106.7,139.68Z" transform="translate(-7.67 -5.28)"/><path class="cls-44" d="M209.47,222.26c-2.69,4-15.14,3.48-15.14,3.48V159.4c7.25-.17,15.27-3.85,15.27-3.85Zm7.57,7.92c0-.86-.14-65.84-.14-65.84l.14-1.64c.13-16.48-3.93-19.91-3.93-19.91H212c-1.79,2.56-6,5.4-15.65,6.51-5.45.63-10.92,1.05-16.39,1.45-7,.51-13.83.74-20.65.74a320.14,320.14,0,0,1-37-2.19c-9.67-1.11-13.86-4-15.66-6.52H106s-4.06,3.43-3.93,19.9l.14,1.67s-.14,65-.14,65.82c0,9.6,0,21.76,10.14,26.65,12.79,6.14,12.55,10,46.75,11.26h1.2c34.19-1.28,34-5.13,46.75-11.27C217.08,251.94,217.06,239.77,217,230.18Z" transform="translate(-7.67 -5.28)"/></g><g class="cls-45"><path class="cls-46" d="M109.24,136.82c1.79,2.26,6,5.46,15.66,6.57a320.46,320.46,0,0,0,37,2.25c6.82,0,13.67-.24,20.65-.76,5.47-.4,10.94-.86,16.39-1.48,9.67-1.12,13.87-4.32,15.65-6.57a6.26,6.26,0,0,0,1.28-2.39l-.19-7.17c3.86-24.18-52.33-24.49-53.75-24.49s-57.61.3-53.75,24.49l-.19,7.17A6.26,6.26,0,0,0,109.24,136.82Z" transform="translate(-7.67 -5.28)"/><path class="cls-46" d="M212,219.4c-2.69,4-15.14,3.48-15.14,3.48V156.54c7.25-.17,15.27-3.85,15.27-3.85Zm7.57,7.92c0-.86-.14-65.84-.14-65.84l.14-1.64c.13-16.48-3.93-19.91-3.93-19.91h-1.09c-1.79,2.56-6,5.4-15.65,6.51-5.45.63-10.92,1.05-16.39,1.45-7,.51-13.83.74-20.65.74a320.18,320.18,0,0,1-37-2.19c-9.67-1.11-13.86-4-15.66-6.52h-.7s-4.06,3.43-3.93,19.9l.14,1.67s-.14,65-.14,65.82c0,9.6,0,21.76,10.14,26.65,12.79,6.14,12.55,10,46.75,11.26h1.2c34.19-1.28,34-5.13,46.75-11.27C219.62,249.09,219.6,236.92,219.58,227.32Z" transform="translate(-7.67 -5.28)"/></g><g class="cls-47"><path class="cls-48" d="M111.78,134c1.79,2.26,6,5.46,15.66,6.57a320.49,320.49,0,0,0,37,2.25c6.82,0,13.67-.24,20.65-.76,5.47-.4,10.94-.86,16.39-1.48,9.67-1.12,13.87-4.32,15.65-6.57a6.26,6.26,0,0,0,1.28-2.39l-.19-7.17c3.86-24.18-52.33-24.49-53.75-24.49s-57.61.3-53.75,24.49l-.19,7.17A6.27,6.27,0,0,0,111.78,134Z" transform="translate(-7.67 -5.28)"/><path class="cls-48" d="M214.54,216.54c-2.69,4-15.14,3.48-15.14,3.48V153.69c7.25-.17,15.27-3.85,15.27-3.85Zm7.57,7.92c0-.86-.14-65.84-.14-65.84l.14-1.64c.13-16.48-3.93-19.91-3.93-19.91h-1.09c-1.79,2.56-6,5.4-15.65,6.51-5.45.63-10.92,1.05-16.39,1.45-7,.51-13.83.74-20.65.74a320.22,320.22,0,0,1-37-2.19c-9.67-1.11-13.86-4-15.66-6.52h-.7s-4.06,3.43-3.93,19.9l.14,1.67s-.14,65-.14,65.82c0,9.6,0,21.76,10.14,26.65,12.79,6.14,12.55,10,46.75,11.26h1.2c34.19-1.28,34-5.13,46.75-11.27C222.15,246.23,222.13,234.06,222.11,224.47Z" transform="translate(-7.67 -5.28)"/></g><g class="cls-49"><path class="cls-50" d="M114.31,131.11c1.79,2.26,6,5.46,15.66,6.57a320.53,320.53,0,0,0,37,2.25c6.82,0,13.67-.24,20.65-.76,5.47-.4,10.94-.86,16.39-1.48,9.67-1.12,13.87-4.32,15.65-6.57a6.26,6.26,0,0,0,1.28-2.39l-.19-7.17c3.86-24.18-52.33-24.49-53.75-24.49s-57.61.3-53.75,24.49l-.19,7.17A6.27,6.27,0,0,0,114.31,131.11Z" transform="translate(-7.67 -5.28)"/><path class="cls-50" d="M217.08,213.69c-2.69,4-15.14,3.48-15.14,3.48V150.83c7.25-.17,15.27-3.85,15.27-3.85Zm7.57,7.92c0-.86-.14-65.84-.14-65.84l.14-1.64c.13-16.48-3.93-19.9-3.93-19.9h-1.09c-1.79,2.56-6,5.4-15.65,6.51-5.45.63-10.92,1.05-16.39,1.45-7,.51-13.83.74-20.65.74a320.27,320.27,0,0,1-37-2.19c-9.67-1.11-13.86-4-15.66-6.52h-.7s-4.06,3.43-3.93,19.9l.14,1.67s-.14,65-.14,65.82c0,9.6,0,21.76,10.14,26.65,12.79,6.14,12.55,10,46.75,11.26h1.2c34.19-1.28,34-5.13,46.75-11.27C224.69,243.37,224.67,231.21,224.65,221.61Z" transform="translate(-7.67 -5.28)"/></g><g class="cls-51"><path class="cls-52" d="M116.85,128.26c1.79,2.26,6,5.46,15.66,6.57a320.56,320.56,0,0,0,37,2.25c6.82,0,13.67-.24,20.65-.76,5.47-.4,10.94-.86,16.39-1.48,9.67-1.12,13.87-4.32,15.65-6.57a6.26,6.26,0,0,0,1.28-2.39l-.19-7.17c3.86-24.18-52.33-24.49-53.75-24.49s-57.61.3-53.75,24.49l-.19,7.17A6.27,6.27,0,0,0,116.85,128.26Z" transform="translate(-7.67 -5.28)"/><path class="cls-52" d="M219.62,210.83c-2.69,4-15.14,3.48-15.14,3.48V148c7.25-.17,15.27-3.85,15.27-3.85Zm7.57,7.92c0-.86-.14-65.84-.14-65.84l.14-1.64c.13-16.48-3.93-19.9-3.93-19.9h-1.09c-1.79,2.56-6,5.4-15.65,6.51-5.45.63-10.92,1.05-16.39,1.45-7,.51-13.83.74-20.65.74a320.31,320.31,0,0,1-37-2.19c-9.67-1.11-13.86-4-15.66-6.52h-.7s-4.06,3.43-3.93,19.9l.14,1.67s-.14,65-.14,65.82c0,9.6,0,21.76,10.14,26.65,12.79,6.14,12.55,10,46.75,11.26h1.2c34.19-1.28,34-5.13,46.75-11.27C227.23,240.52,227.21,228.35,227.19,218.76Z" transform="translate(-7.67 -5.28)"/></g><g class="cls-53"><path class="cls-54" d="M119.39,125.4c1.79,2.26,6,5.46,15.66,6.57a320.6,320.6,0,0,0,37,2.25c6.82,0,13.67-.24,20.65-.76,5.47-.4,10.94-.86,16.39-1.48,9.67-1.12,13.87-4.32,15.65-6.57A6.27,6.27,0,0,0,226,123l-.19-7.17c3.86-24.18-52.33-24.49-53.75-24.49s-57.61.3-53.75,24.49l-.19,7.17A6.28,6.28,0,0,0,119.39,125.4Z" transform="translate(-7.67 -5.28)"/><path class="cls-54" d="M222.15,208c-2.69,4-15.14,3.48-15.14,3.48V145.12c7.25-.17,15.27-3.85,15.27-3.85Zm7.57,7.92c0-.86-.14-65.84-.14-65.84l.14-1.64c.13-16.48-3.93-19.9-3.93-19.9H224.7c-1.79,2.56-6,5.4-15.65,6.51-5.45.63-10.92,1.05-16.39,1.45-7,.51-13.83.74-20.65.74A320.35,320.35,0,0,1,135,135c-9.67-1.11-13.87-4-15.66-6.52h-.7s-4.06,3.43-3.93,19.9l.14,1.67s-.14,65-.14,65.82c0,9.6,0,21.76,10.14,26.65,12.79,6.14,12.55,10,46.75,11.26h1.2c34.19-1.28,34-5.13,46.75-11.27C229.76,237.66,229.75,225.5,229.72,215.9Z" transform="translate(-7.67 -5.28)"/></g><g class="cls-55"><path class="cls-56" d="M121.92,122.55c1.79,2.26,6,5.46,15.66,6.57a320.63,320.63,0,0,0,37,2.25c6.82,0,13.67-.24,20.65-.76,5.47-.4,10.94-.86,16.39-1.48,9.67-1.12,13.87-4.32,15.65-6.57a6.27,6.27,0,0,0,1.28-2.39l-.19-7.17C232.19,88.8,176,88.5,174.58,88.5S117,88.8,120.83,113l-.19,7.17A6.28,6.28,0,0,0,121.92,122.55Z" transform="translate(-7.67 -5.28)"/><path class="cls-56" d="M224.69,205.12c-2.69,4-15.14,3.47-15.14,3.47V142.27c7.25-.17,15.27-3.85,15.27-3.85Zm7.57,7.92c0-.86-.14-65.84-.14-65.84l.14-1.64c.13-16.48-3.93-19.9-3.93-19.9h-1.09c-1.79,2.56-6,5.4-15.65,6.51-5.45.63-10.92,1.05-16.39,1.46-7,.51-13.83.74-20.65.74a320.39,320.39,0,0,1-37-2.19c-9.67-1.11-13.87-4-15.66-6.52h-.7s-4.06,3.43-3.93,19.9l.14,1.67s-.14,65-.14,65.82c0,9.6,0,21.76,10.14,26.65,12.79,6.14,12.55,10,46.75,11.26h1.2c34.19-1.28,34-5.13,46.75-11.27C232.3,234.81,232.28,222.64,232.26,213Z" transform="translate(-7.67 -5.28)"/></g><g class="cls-57"><path class="cls-58" d="M124.46,119.69c1.79,2.26,6,5.46,15.66,6.57a320.67,320.67,0,0,0,37,2.25c6.82,0,13.67-.24,20.65-.76,5.47-.4,10.94-.86,16.39-1.48,9.67-1.12,13.87-4.32,15.65-6.57a6.27,6.27,0,0,0,1.28-2.39l-.19-7.17c3.86-24.18-52.33-24.49-53.75-24.49s-57.61.3-53.75,24.49l-.19,7.17A6.28,6.28,0,0,0,124.46,119.69Z" transform="translate(-7.67 -5.28)"/><path class="cls-58" d="M227.23,202.27c-2.69,4-15.14,3.47-15.14,3.47V139.41c7.25-.17,15.27-3.85,15.27-3.85Zm7.57,7.92c0-.86-.14-65.84-.14-65.84l.14-1.64c.13-16.48-3.93-19.9-3.93-19.9h-1.09c-1.79,2.56-6,5.4-15.65,6.51-5.45.63-10.92,1.05-16.39,1.46-7,.51-13.83.74-20.65.74a320.43,320.43,0,0,1-37-2.19c-9.67-1.11-13.87-4-15.66-6.52h-.7s-4.06,3.43-3.93,19.9l.14,1.67s-.14,65-.14,65.82c0,9.6,0,21.76,10.14,26.65,12.79,6.14,12.55,10,46.75,11.26h1.2c34.19-1.28,34-5.13,46.75-11.27C234.84,232,234.82,219.79,234.8,210.19Z" transform="translate(-7.67 -5.28)"/></g><g class="cls-59"><path class="cls-60" d="M127,116.84c1.79,2.26,6,5.46,15.66,6.57a320.7,320.7,0,0,0,37,2.25c6.82,0,13.67-.24,20.65-.76,5.47-.4,10.94-.86,16.39-1.48,9.67-1.12,13.87-4.32,15.65-6.57a6.27,6.27,0,0,0,1.28-2.39l-.19-7.17c3.86-24.18-52.33-24.49-53.75-24.49s-57.61.3-53.75,24.49l-.19,7.17A6.28,6.28,0,0,0,127,116.84Z" transform="translate(-7.67 -5.28)"/><path class="cls-60" d="M229.76,199.41c-2.69,4-15.14,3.47-15.14,3.47V136.55c7.25-.17,15.27-3.85,15.27-3.85Zm7.57,7.92c0-.86-.14-65.84-.14-65.84l.14-1.64c.13-16.48-3.93-19.9-3.93-19.9h-1.09c-1.79,2.56-6,5.4-15.65,6.51-5.45.63-10.92,1.05-16.39,1.46-7,.51-13.83.74-20.65.74a320.47,320.47,0,0,1-37-2.19c-9.67-1.11-13.87-4-15.66-6.52h-.7s-4.06,3.43-3.93,19.9l.14,1.67s-.14,65-.14,65.82c0,9.6,0,21.76,10.14,26.65,12.79,6.14,12.55,10,46.75,11.26h1.2c34.19-1.28,34-5.13,46.75-11.27C237.37,229.1,237.36,216.93,237.34,207.33Z" transform="translate(-7.67 -5.28)"/></g><g class="cls-61"><path class="cls-62" d="M129.54,114c1.79,2.26,6,5.46,15.66,6.57a320.74,320.74,0,0,0,37,2.25c6.82,0,13.67-.24,20.65-.76,5.47-.4,10.94-.86,16.39-1.48,9.67-1.12,13.87-4.32,15.65-6.57a6.27,6.27,0,0,0,1.28-2.39l-.19-7.17c3.86-24.18-52.33-24.49-53.75-24.49s-57.61.3-53.75,24.49l-.19,7.17A6.29,6.29,0,0,0,129.54,114Z" transform="translate(-7.67 -5.28)"/><path class="cls-62" d="M232.3,196.56c-2.69,4-15.14,3.47-15.14,3.47V133.7c7.25-.17,15.27-3.85,15.27-3.85Zm7.57,7.92c0-.86-.14-65.84-.14-65.84l.14-1.64c.13-16.48-3.93-19.9-3.93-19.9h-1.09c-1.79,2.56-6,5.4-15.65,6.51-5.45.63-10.92,1.05-16.39,1.46-7,.51-13.83.74-20.65.74a320.52,320.52,0,0,1-37-2.19c-9.67-1.11-13.87-4-15.66-6.52h-.7s-4.06,3.43-3.93,19.9l.14,1.67s-.14,65-.14,65.82c0,9.6,0,21.76,10.14,26.65,12.79,6.14,12.55,10,46.75,11.26H183c34.19-1.28,34-5.13,46.75-11.27C239.91,226.24,239.89,214.08,239.87,204.48Z" transform="translate(-7.67 -5.28)"/></g><g class="cls-63"><path class="cls-64" d="M132.07,111.13c1.79,2.26,6,5.46,15.66,6.57a320.77,320.77,0,0,0,37,2.25c6.82,0,13.67-.24,20.65-.76,5.47-.4,10.94-.86,16.39-1.48,9.67-1.12,13.87-4.32,15.65-6.57a6.27,6.27,0,0,0,1.28-2.39l-.19-7.17c3.86-24.18-52.33-24.49-53.75-24.49s-57.61.31-53.75,24.49l-.19,7.17A6.29,6.29,0,0,0,132.07,111.13Z" transform="translate(-7.67 -5.28)"/><path class="cls-64" d="M234.84,193.7c-2.69,4-15.14,3.47-15.14,3.47V130.84C226.95,130.68,235,127,235,127Zm7.57,7.92c0-.86-.14-65.84-.14-65.84l.14-1.64c.13-16.48-3.93-19.9-3.93-19.9h-1.09c-1.79,2.56-6,5.4-15.65,6.51-5.45.63-10.92,1.05-16.39,1.46-7,.51-13.83.74-20.65.74a320.56,320.56,0,0,1-37-2.19c-9.67-1.11-13.87-4-15.66-6.52h-.7s-4.06,3.43-3.93,19.9l.14,1.67s-.14,65-.14,65.82c0,9.6,0,21.76,10.14,26.65,12.79,6.14,12.55,10,46.75,11.26h1.2c34.19-1.28,34-5.13,46.75-11.27C242.45,223.39,242.43,211.22,242.41,201.62Z" transform="translate(-7.67 -5.28)"/></g><g class="cls-65"><path class="cls-66" d="M134.61,108.27c1.79,2.26,6,5.46,15.66,6.57a320.81,320.81,0,0,0,37,2.25c6.82,0,13.67-.24,20.65-.76,5.47-.4,10.94-.86,16.39-1.48,9.67-1.12,13.87-4.32,15.65-6.57a6.28,6.28,0,0,0,1.28-2.39L241,98.71c3.86-24.18-52.33-24.49-53.75-24.49s-57.61.31-53.75,24.49l-.19,7.17A6.29,6.29,0,0,0,134.61,108.27Z" transform="translate(-7.67 -5.28)"/><path class="cls-66" d="M237.38,190.85c-2.69,4-15.14,3.47-15.14,3.47V128c7.25-.17,15.27-3.85,15.27-3.85Zm7.57,7.92c0-.86-.14-65.84-.14-65.84l.14-1.64c.13-16.48-3.93-19.9-3.93-19.9h-1.09c-1.79,2.56-6,5.4-15.65,6.51-5.45.63-10.92,1.05-16.39,1.46-7,.51-13.83.74-20.65.74a320.6,320.6,0,0,1-37-2.19c-9.67-1.11-13.87-4-15.66-6.52h-.7s-4.06,3.43-3.93,19.9l.14,1.67s-.14,65-.14,65.82c0,9.6,0,21.76,10.14,26.65,12.79,6.14,12.55,10,46.75,11.26h1.2c34.19-1.28,34-5.13,46.75-11.27C245,220.53,245,208.37,244.95,198.77Z" transform="translate(-7.67 -5.28)"/></g><g class="cls-67"><path class="cls-68" d="M137.15,105.41c1.79,2.26,6,5.46,15.66,6.57a320.84,320.84,0,0,0,37,2.25c6.82,0,13.67-.24,20.65-.76,5.47-.4,10.94-.86,16.39-1.48,9.67-1.12,13.87-4.32,15.65-6.58a6.28,6.28,0,0,0,1.28-2.39l-.19-7.17c3.86-24.18-52.33-24.49-53.75-24.49s-57.61.31-53.75,24.49l-.19,7.17A6.3,6.3,0,0,0,137.15,105.41Z" transform="translate(-7.67 -5.28)"/><path class="cls-68" d="M239.91,188c-2.69,4-15.14,3.47-15.14,3.47V125.13C232,125,240,121.28,240,121.28Zm7.57,7.92c0-.86-.14-65.84-.14-65.84l.14-1.64c.13-16.48-3.93-19.9-3.93-19.9h-1.09c-1.79,2.56-6,5.4-15.65,6.51-5.45.63-10.92,1.05-16.39,1.46-7,.51-13.83.74-20.65.74a320.64,320.64,0,0,1-37-2.19c-9.67-1.11-13.87-4-15.66-6.52h-.7s-4.06,3.43-3.93,19.9l.14,1.67s-.14,65-.14,65.82c0,9.6,0,21.76,10.14,26.65,12.79,6.14,12.55,10,46.75,11.26h1.2c34.19-1.28,34-5.13,46.75-11.27C247.52,217.68,247.5,205.51,247.48,195.91Z" transform="translate(-7.67 -5.28)"/></g><g class="cls-69"><path class="cls-70" d="M139.68,102.56c1.79,2.26,6,5.46,15.66,6.57a320.88,320.88,0,0,0,37,2.25c6.82,0,13.67-.24,20.65-.76,5.47-.4,10.94-.86,16.39-1.48,9.67-1.12,13.87-4.32,15.65-6.58a6.28,6.28,0,0,0,1.28-2.39L246.09,93c3.86-24.18-52.33-24.49-53.75-24.49s-57.61.31-53.75,24.49l-.19,7.17A6.3,6.3,0,0,0,139.68,102.56Z" transform="translate(-7.67 -5.28)"/><path class="cls-70" d="M242.45,185.14c-2.69,4-15.14,3.47-15.14,3.47V122.28c7.25-.17,15.27-3.85,15.27-3.85Zm7.57,7.92c0-.86-.14-65.84-.14-65.84l.14-1.64c.13-16.48-3.93-19.9-3.93-19.9H245c-1.79,2.56-6,5.4-15.65,6.51-5.45.63-10.92,1.05-16.39,1.46-7,.51-13.83.74-20.65.74a320.68,320.68,0,0,1-37-2.19c-9.67-1.11-13.87-4-15.66-6.52H139s-4.06,3.43-3.93,19.9l.14,1.67s-.14,65-.14,65.82c0,9.6,0,21.76,10.14,26.65,12.79,6.14,12.55,10,46.75,11.26h1.21c34.19-1.28,34-5.13,46.75-11.27C250.06,214.82,250,202.65,250,193.06Z" transform="translate(-7.67 -5.28)"/></g><g class="cls-71"><path class="cls-72" d="M142.22,99.7c1.79,2.26,6,5.46,15.66,6.57a320.91,320.91,0,0,0,37,2.25c6.82,0,13.67-.24,20.65-.76,5.47-.4,10.94-.86,16.39-1.48,9.67-1.12,13.87-4.32,15.65-6.58a6.28,6.28,0,0,0,1.28-2.39l-.19-7.17C252.48,66,196.3,65.66,194.88,65.66s-57.61.31-53.75,24.49l-.19,7.17A6.3,6.3,0,0,0,142.22,99.7Z" transform="translate(-7.67 -5.28)"/><path class="cls-72" d="M245,182.28c-2.69,4-15.14,3.47-15.14,3.47V119.42c7.25-.17,15.27-3.85,15.27-3.85Zm7.57,7.92c0-.86-.14-65.84-.14-65.84l.14-1.64c.13-16.48-3.93-19.9-3.93-19.9h-1.09c-1.79,2.56-6,5.4-15.65,6.51-5.45.63-10.92,1.05-16.39,1.46-7,.51-13.83.74-20.65.74a320.72,320.72,0,0,1-37-2.19c-9.67-1.11-13.87-4-15.66-6.52h-.7s-4.06,3.43-3.93,19.9l.14,1.67s-.14,65-.14,65.82c0,9.6,0,21.76,10.14,26.65,12.79,6.14,12.55,10,46.75,11.26h1.21c34.19-1.28,34-5.13,46.75-11.27C252.6,212,252.58,199.8,252.56,190.2Z" transform="translate(-7.67 -5.28)"/></g><g class="cls-73"><path class="cls-74" d="M144.76,96.85c1.79,2.26,6,5.46,15.66,6.57a321,321,0,0,0,37,2.25c6.82,0,13.67-.24,20.65-.76,5.47-.4,10.94-.86,16.39-1.48,9.67-1.12,13.87-4.32,15.65-6.58a6.28,6.28,0,0,0,1.28-2.39l-.19-7.17C255,63.11,198.84,62.8,197.42,62.8s-57.61.31-53.75,24.49l-.19,7.17A6.3,6.3,0,0,0,144.76,96.85Z" transform="translate(-7.67 -5.28)"/><path class="cls-74" d="M247.52,179.43c-2.69,4-15.14,3.47-15.14,3.47V116.57c7.25-.17,15.27-3.85,15.27-3.85Zm7.57,7.92c0-.86-.14-65.84-.14-65.84l.14-1.64c.13-16.48-3.94-19.9-3.94-19.9h-1.09c-1.79,2.56-6,5.4-15.65,6.51-5.45.63-10.92,1.05-16.39,1.46-7,.51-13.83.74-20.65.74a320.77,320.77,0,0,1-37-2.19c-9.67-1.11-13.87-4-15.66-6.52h-.7s-4.06,3.43-3.93,19.9l.14,1.67s-.14,65-.14,65.82c0,9.6,0,21.76,10.14,26.65,12.79,6.14,12.55,10,46.75,11.26h1.21c34.19-1.28,34-5.13,46.75-11.27C255.13,209.11,255.12,196.94,255.09,187.35Z" transform="translate(-7.67 -5.28)"/></g><g class="cls-75"><path class="cls-76" d="M147.3,94c1.79,2.26,6,5.46,15.66,6.57a321,321,0,0,0,37,2.25c6.82,0,13.67-.24,20.65-.76,5.47-.4,10.94-.86,16.39-1.48,9.67-1.12,13.87-4.32,15.65-6.58a6.28,6.28,0,0,0,1.29-2.39l-.19-7.17c3.86-24.18-52.33-24.49-53.75-24.49s-57.61.31-53.75,24.49L146,91.6A6.31,6.31,0,0,0,147.3,94Z" transform="translate(-7.67 -5.28)"/><path class="cls-76" d="M250.06,176.57c-2.69,4-15.14,3.47-15.14,3.47V113.71c7.25-.17,15.27-3.85,15.27-3.85Zm7.57,7.92c0-.86-.14-65.84-.14-65.84l.14-1.64c.13-16.48-3.94-19.9-3.94-19.9h-1.09c-1.79,2.56-6,5.4-15.65,6.51-5.45.63-10.92,1.05-16.39,1.46-7,.51-13.83.74-20.65.74a320.81,320.81,0,0,1-37-2.19c-9.67-1.11-13.87-4-15.66-6.52h-.7s-4.06,3.43-3.93,19.9l.14,1.67s-.14,65-.14,65.82c0,9.6,0,21.76,10.14,26.65,12.79,6.14,12.55,10,46.75,11.26h1.21c34.19-1.28,34-5.13,46.75-11.27C257.67,206.26,257.65,194.09,257.63,184.49Z" transform="translate(-7.67 -5.28)"/></g><g class="cls-77"><path class="cls-78" d="M149.83,91.14c1.79,2.26,6,5.46,15.66,6.57a321,321,0,0,0,37,2.25c6.82,0,13.67-.24,20.65-.76,5.47-.4,10.94-.86,16.39-1.48,9.67-1.12,13.87-4.32,15.65-6.58a6.29,6.29,0,0,0,1.29-2.39l-.19-7.17c3.86-24.18-52.33-24.49-53.75-24.49s-57.61.31-53.75,24.49l-.19,7.17A6.31,6.31,0,0,0,149.83,91.14Z" transform="translate(-7.67 -5.28)"/><path class="cls-78" d="M252.6,173.71c-2.69,4-15.14,3.47-15.14,3.47V110.86c7.25-.17,15.27-3.85,15.27-3.85Zm7.57,7.92c0-.86-.14-65.84-.14-65.84l.14-1.64c.13-16.48-3.94-19.9-3.94-19.9h-1.09c-1.79,2.56-6,5.4-15.65,6.51-5.45.63-10.92,1.05-16.39,1.46-7,.51-13.83.74-20.65.74a320.85,320.85,0,0,1-37-2.19c-9.67-1.11-13.87-4-15.66-6.52h-.7s-4.06,3.43-3.93,19.9l.14,1.67s-.14,65-.14,65.82c0,9.6,0,21.76,10.14,26.65,12.79,6.14,12.55,10,46.75,11.26h1.21c34.19-1.28,34-5.13,46.75-11.27C260.21,203.4,260.19,191.23,260.17,181.63Z" transform="translate(-7.67 -5.28)"/></g><path class="cls-29" d="M152.37,88.28c1.79,2.26,6,5.46,15.66,6.57a321.05,321.05,0,0,0,37,2.25c6.82,0,13.67-.25,20.65-.76,5.47-.4,10.94-.86,16.39-1.48,9.67-1.12,13.87-4.32,15.65-6.58A6.29,6.29,0,0,0,259,85.89l-.19-7.17c3.86-24.18-52.33-24.48-53.75-24.49s-57.61.31-53.75,24.49l-.19,7.17A6.31,6.31,0,0,0,152.37,88.28Z" transform="translate(-7.67 -5.28)"/><path class="cls-29" d="M255.14,170.86c-2.69,4-15.14,3.47-15.14,3.47V108c7.25-.16,15.27-3.85,15.27-3.85Zm7.57,7.92c0-.86-.14-65.84-.14-65.84l.14-1.64c.13-16.48-3.94-19.9-3.94-19.9h-1.09c-1.79,2.56-6,5.4-15.65,6.51-5.45.63-10.92,1.05-16.39,1.46-7,.51-13.83.74-20.65.74a320.89,320.89,0,0,1-37-2.19c-9.67-1.11-13.87-4-15.66-6.52h-.7s-4.06,3.43-3.94,19.9l.14,1.67s-.14,65-.14,65.82c0,9.6,0,21.76,10.14,26.65,12.79,6.14,12.55,10,46.75,11.26h1.21c34.19-1.28,34-5.13,46.75-11.27C262.75,200.54,262.73,188.38,262.71,178.78Z" transform="translate(-7.67 -5.28)"/></g><path class="cls-38" d="M153.22,87.43c1.79,2.26,6,5.46,15.66,6.57a320.87,320.87,0,0,0,37,2.24c6.82,0,13.67-.24,20.65-.76,5.47-.4,10.94-.86,16.39-1.48,9.67-1.12,13.87-4.32,15.65-6.57A6.25,6.25,0,0,0,259.82,85l-.19-7.18c3.86-24.18-52.33-24.48-53.75-24.48s-57.61.3-53.75,24.48L151.94,85A6.26,6.26,0,0,0,153.22,87.43Z" transform="translate(-7.67 -5.28)"/><path class="cls-38" d="M263.56,177.93c0-.86-.14-65.84-.14-65.84l.14-1.64c.13-16.48-3.93-19.91-3.93-19.91h-1.09c-1.79,2.56-6,5.4-15.65,6.51-5.45.63-10.92,1-16.39,1.45-7,.51-13.83.75-20.65.74a320.71,320.71,0,0,1-37-2.19c-9.67-1.12-13.87-4-15.66-6.52h-.7s-4.06,3.43-3.93,19.9l.14,1.67s-.14,65-.14,65.82c0,9.6,0,21.76,10.14,26.65,12.79,6.14,12.56,10,46.75,11.26h1.2c34.19-1.28,34-5.13,46.75-11.27C263.6,199.69,263.58,187.52,263.56,177.93ZM256,170c-2.69,4-15.13,3.48-15.13,3.48V107.15c7.25-.17,15.27-3.86,15.27-3.86Z" transform="translate(-7.67 -5.28)"/><path class="cls-79" d="M152.37,88.28c1.79,2.26,6,5.46,15.66,6.57a321.05,321.05,0,0,0,37,2.25c6.82,0,13.67-.25,20.65-.76,5.47-.4,10.94-.86,16.39-1.48,9.67-1.12,13.87-4.32,15.65-6.58A6.29,6.29,0,0,0,259,85.89l-.19-7.17c3.86-24.18-52.33-24.48-53.75-24.49s-57.61.31-53.75,24.49l-.19,7.17A6.31,6.31,0,0,0,152.37,88.28Z" transform="translate(-7.67 -5.28)"/><path class="cls-80" d="M262.71,178.78c0-.86-.14-65.84-.14-65.84l.14-1.64c.13-16.48-3.94-19.9-3.94-19.9h-1.09c-1.79,2.56-6,5.4-15.65,6.51-5.45.63-10.92,1.05-16.39,1.46-7,.51-13.83.74-20.65.74a320.89,320.89,0,0,1-37-2.19c-9.67-1.11-13.87-4-15.66-6.52h-.7s-4.06,3.43-3.94,19.9l.14,1.67s-.14,65-.14,65.82c0,9.6,0,21.76,10.14,26.65,12.79,6.14,12.55,10,46.75,11.26h1.21c34.19-1.28,34-5.13,46.75-11.27C262.75,200.54,262.73,188.38,262.71,178.78Zm-7.57-7.92c-2.69,4-15.14,3.47-15.14,3.47V108c7.25-.16,15.27-3.85,15.27-3.85Z" transform="translate(-7.67 -5.28)"/></g></g></svg>