<svg xmlns="http://www.w3.org/2000/svg" xmlns:xlink="http://www.w3.org/1999/xlink" viewBox="0 0 177.44 299.76"><defs><style>.cls-1{isolation:isolate;}.cls-2{mix-blend-mode:multiply;}.cls-3{opacity:0;}.cls-4{fill:#fff;}.cls-5{opacity:0.05;}.cls-6{fill:#f9f9fa;}.cls-7{opacity:0.1;}.cls-8{fill:#f4f5f6;}.cls-9{opacity:0.14;}.cls-10{fill:#f0f1f3;}.cls-11{opacity:0.19;}.cls-12{fill:#ecedf0;}.cls-13{opacity:0.24;}.cls-14{fill:#e9eaed;}.cls-15{opacity:0.29;}.cls-16{fill:#e5e7ea;}.cls-17{opacity:0.33;}.cls-18{fill:#e1e3e8;}.cls-19{opacity:0.38;}.cls-20{fill:#dee0e5;}.cls-21{opacity:0.43;}.cls-22{fill:#dadde3;}.cls-23{opacity:0.48;}.cls-24{fill:#d6dae0;}.cls-25{opacity:0.52;}.cls-26{fill:#d3d7de;}.cls-27{opacity:0.57;}.cls-28{fill:#cfd4db;}.cls-29{opacity:0.62;}.cls-30{fill:#ccd1d9;}.cls-31{opacity:0.67;}.cls-32{fill:#c8ced6;}.cls-33{opacity:0.71;}.cls-34{fill:#c5cbd4;}.cls-35{opacity:0.76;}.cls-36{fill:#c1c8d2;}.cls-37{opacity:0.81;}.cls-38{fill:#bec6cf;}.cls-39{opacity:0.86;}.cls-40{fill:#bbc3cd;}.cls-41{opacity:0.9;}.cls-42{fill:#b7c0cb;}.cls-43{opacity:0.95;}.cls-44{fill:#b4bdc9;}.cls-45{fill:#b1bac6;}.cls-46{fill:url(#ÕÓ_È_Ó·_ÁÂ_ËÂÌÚ_7);}.cls-47{fill:url(#ÕÓ_È_Ó·_ÁÂ_ËÂÌÚ_7-2);}.cls-48{fill:url(#ÕÓ_È_Ó·_ÁÂ_ËÂÌÚ_7-3);}.cls-49{fill:url(#ÕÓ_È_Ó·_ÁÂ_ËÂÌÚ_7-4);}.cls-50{fill:url(#ÕÓ_È_Ó·_ÁÂ_ËÂÌÚ_7-5);}.cls-51{fill:url(#ÕÓ_È_Ó·_ÁÂ_ËÂÌÚ_7-6);}.cls-52{fill:url(#ÕÓ_È_Ó·_ÁÂ_ËÂÌÚ_7-7);}.cls-53{fill:url(#ÕÓ_È_Ó·_ÁÂ_ËÂÌÚ_7-8);}.cls-54{fill:url(#ÕÓ_È_Ó·_ÁÂ_ËÂÌÚ_7-9);}.cls-55{fill:url(#ÕÓ_È_Ó·_ÁÂ_ËÂÌÚ_7-10);}.cls-56{fill:url(#ÕÓ_È_Ó·_ÁÂ_ËÂÌÚ_7-11);}.cls-57{fill:url(#ÕÓ_È_Ó·_ÁÂ_ËÂÌÚ_7-12);}.cls-58{fill:url(#ÕÓ_È_Ó·_ÁÂ_ËÂÌÚ_7-13);}.cls-59{fill:url(#ÕÓ_È_Ó·_ÁÂ_ËÂÌÚ_7-14);}.cls-60{fill:url(#ÕÓ_È_Ó·_ÁÂ_ËÂÌÚ_7-15);}.cls-61{fill:url(#ÕÓ_È_Ó·_ÁÂ_ËÂÌÚ_7-16);}.cls-62{fill:url(#ÕÓ_È_Ó·_ÁÂ_ËÂÌÚ_7-17);}.cls-63{fill:url(#ÕÓ_È_Ó·_ÁÂ_ËÂÌÚ_7-18);}.cls-64{fill:url(#ÕÓ_È_Ó·_ÁÂ_ËÂÌÚ_7-19);}.cls-65{fill:url(#ÕÓ_È_Ó·_ÁÂ_ËÂÌÚ_7-20);}</style><radialGradient id="ÕÓ_È_Ó·_ÁÂ_ËÂÌÚ_7" cx="638.35" cy="-5.86" r="472.8" gradientTransform="translate(-460.55)" gradientUnits="userSpaceOnUse"><stop offset="0" stop-color="#c7cfd6"/><stop offset="1" stop-color="#fff"/></radialGradient><radialGradient id="ÕÓ_È_Ó·_ÁÂ_ËÂÌÚ_7-2" cx="638.35" cy="-5.86" r="472.79" xlink:href="#ÕÓ_È_Ó·_ÁÂ_ËÂÌÚ_7"/><radialGradient id="ÕÓ_È_Ó·_ÁÂ_ËÂÌÚ_7-3" cx="638.35" cy="-5.86" r="472.78" gradientTransform="translate(-463.18 -12.31)" xlink:href="#ÕÓ_È_Ó·_ÁÂ_ËÂÌÚ_7"/><radialGradient id="ÕÓ_È_Ó·_ÁÂ_ËÂÌÚ_7-4" cx="638.35" cy="-5.86" r="472.77" gradientTransform="translate(-463.18 -12.31)" xlink:href="#ÕÓ_È_Ó·_ÁÂ_ËÂÌÚ_7"/><radialGradient id="ÕÓ_È_Ó·_ÁÂ_ËÂÌÚ_7-5" cx="638.36" cy="-5.87" r="472.82" gradientTransform="translate(-463.18 -12.31)" xlink:href="#ÕÓ_È_Ó·_ÁÂ_ËÂÌÚ_7"/><radialGradient id="ÕÓ_È_Ó·_ÁÂ_ËÂÌÚ_7-6" cx="638.35" cy="-5.87" r="472.82" gradientTransform="translate(-463.18 -12.31)" xlink:href="#ÕÓ_È_Ó·_ÁÂ_ËÂÌÚ_7"/><radialGradient id="ÕÓ_È_Ó·_ÁÂ_ËÂÌÚ_7-7" cx="638.36" cy="-5.87" r="472.84" gradientTransform="translate(-463.18 -12.31)" xlink:href="#ÕÓ_È_Ó·_ÁÂ_ËÂÌÚ_7"/><radialGradient id="ÕÓ_È_Ó·_ÁÂ_ËÂÌÚ_7-8" cx="638.35" cy="-5.86" r="472.82" gradientTransform="translate(-463.18 -12.31)" xlink:href="#ÕÓ_È_Ó·_ÁÂ_ËÂÌÚ_7"/><radialGradient id="ÕÓ_È_Ó·_ÁÂ_ËÂÌÚ_7-9" cx="638.34" cy="-5.86" r="472.78" gradientTransform="translate(-463.18 -12.31)" xlink:href="#ÕÓ_È_Ó·_ÁÂ_ËÂÌÚ_7"/><radialGradient id="ÕÓ_È_Ó·_ÁÂ_ËÂÌÚ_7-10" cx="638.36" cy="-5.86" r="472.79" gradientTransform="translate(-463.18 -12.31)" xlink:href="#ÕÓ_È_Ó·_ÁÂ_ËÂÌÚ_7"/><radialGradient id="ÕÓ_È_Ó·_ÁÂ_ËÂÌÚ_7-11" cx="638.35" cy="-5.86" r="472.83" gradientTransform="translate(-463.18 -12.31)" xlink:href="#ÕÓ_È_Ó·_ÁÂ_ËÂÌÚ_7"/><radialGradient id="ÕÓ_È_Ó·_ÁÂ_ËÂÌÚ_7-12" cx="638.36" cy="-5.86" r="472.78" gradientTransform="translate(-463.18 -12.31)" xlink:href="#ÕÓ_È_Ó·_ÁÂ_ËÂÌÚ_7"/><radialGradient id="ÕÓ_È_Ó·_ÁÂ_ËÂÌÚ_7-13" cx="638.35" cy="-5.86" r="472.78" gradientTransform="translate(-463.18 -12.31)" xlink:href="#ÕÓ_È_Ó·_ÁÂ_ËÂÌÚ_7"/><radialGradient id="ÕÓ_È_Ó·_ÁÂ_ËÂÌÚ_7-14" cx="638.35" cy="-5.86" r="472.78" gradientTransform="translate(63.38 -478.8) rotate(80.23)" xlink:href="#ÕÓ_È_Ó·_ÁÂ_ËÂÌÚ_7"/><radialGradient id="ÕÓ_È_Ó·_ÁÂ_ËÂÌÚ_7-15" cx="638.36" cy="-5.86" r="472.83" gradientTransform="translate(-463.18 -12.31)" xlink:href="#ÕÓ_È_Ó·_ÁÂ_ËÂÌÚ_7"/><radialGradient id="ÕÓ_È_Ó·_ÁÂ_ËÂÌÚ_7-16" cx="638.36" cy="-5.86" r="472.81" gradientTransform="translate(-463.18 -12.31)" xlink:href="#ÕÓ_È_Ó·_ÁÂ_ËÂÌÚ_7"/><radialGradient id="ÕÓ_È_Ó·_ÁÂ_ËÂÌÚ_7-17" cx="638.35" cy="-5.86" r="472.77" gradientTransform="translate(-463.18 -12.31)" xlink:href="#ÕÓ_È_Ó·_ÁÂ_ËÂÌÚ_7"/><radialGradient id="ÕÓ_È_Ó·_ÁÂ_ËÂÌÚ_7-18" cx="638.36" cy="-5.86" r="472.81" gradientTransform="translate(-463.18 -12.31)" xlink:href="#ÕÓ_È_Ó·_ÁÂ_ËÂÌÚ_7"/><radialGradient id="ÕÓ_È_Ó·_ÁÂ_ËÂÌÚ_7-19" cx="638.36" cy="-5.86" r="472.78" gradientTransform="translate(-463.18 -12.31)" xlink:href="#ÕÓ_È_Ó·_ÁÂ_ËÂÌÚ_7"/><radialGradient id="ÕÓ_È_Ó·_ÁÂ_ËÂÌÚ_7-20" cx="638.36" cy="-5.87" r="472.81" gradientTransform="translate(-463.18 -12.31)" xlink:href="#ÕÓ_È_Ó·_ÁÂ_ËÂÌÚ_7"/></defs><title>single_pill</title><g class="cls-1"><g id="Pill"><g class="cls-2"><g class="cls-3"><path class="cls-4" d="M107.9,261.6a45.84,45.84,0,0,1-45.35,45.93H52.48A45.8,45.8,0,0,1,7.18,261.6V148.49A45.84,45.84,0,0,1,20.43,116a45.27,45.27,0,0,1,32-13.69H62.55A45.31,45.31,0,0,1,94.62,116a45.87,45.87,0,0,1,13.28,32.48Zm-10-148.86a49.67,49.67,0,0,0-35.33-15H52.48a49.63,49.63,0,0,0-35.31,15A50.21,50.21,0,0,0,2.63,148.49V261.6a50.17,50.17,0,0,0,49.85,50.48H62.55a50.2,50.2,0,0,0,49.89-50.48V148.49A50.23,50.23,0,0,0,97.88,112.74Z" transform="translate(-2.63 -12.31)"/><path class="cls-4" d="M11.72,261.6a40.78,40.78,0,0,0,40.76,40.63H62.55a40.82,40.82,0,0,0,40.8-40.63V205.3H11.72Z" transform="translate(-2.63 -12.31)"/><circle class="cls-4" cx="35.47" cy="155.58" r="7.67"/><circle class="cls-4" cx="43.14" cy="172.84" r="7.67"/><circle class="cls-4" cx="16.78" cy="183.62" r="7.67"/><circle class="cls-4" cx="54.88" cy="184.58" r="7.67"/><circle class="cls-4" cx="52.73" cy="143.12" r="7.67"/><circle class="cls-4" cx="71.18" cy="131.86" r="7.67"/><circle class="cls-4" cx="20.13" cy="166.13" r="7.67"/><circle class="cls-4" cx="32.11" cy="134.49" r="7.67"/><circle class="cls-4" cx="71.18" cy="111.01" r="7.67"/><circle class="cls-4" cx="88.91" cy="124.19" r="7.67"/><circle class="cls-4" cx="92.99" cy="150.79" r="7.67"/><circle class="cls-4" cx="19.41" cy="155.43" r="7.67" transform="translate(-139.7 135.89) rotate(-80.24)"/><circle class="cls-4" cx="32.11" cy="113.4" r="7.67"/><circle class="cls-4" cx="52.73" cy="118.67" r="7.67"/><circle class="cls-4" cx="68.06" cy="150.79" r="7.67"/><circle class="cls-4" cx="58.48" cy="166.13" r="7.67"/><circle class="cls-4" cx="78.85" cy="168.28" r="7.67"/><circle class="cls-4" cx="88.91" cy="183.62" r="7.67"/></g><g class="cls-5"><path class="cls-6" d="M111,257.6a45.84,45.84,0,0,1-45.35,45.93H55.63A45.8,45.8,0,0,1,10.32,257.6V144.49A45.84,45.84,0,0,1,23.58,112a45.27,45.27,0,0,1,32-13.69H65.69A45.31,45.31,0,0,1,97.76,112,45.87,45.87,0,0,1,111,144.49ZM101,108.74a49.67,49.67,0,0,0-35.33-15H55.63a49.63,49.63,0,0,0-35.31,15A50.21,50.21,0,0,0,5.78,144.49V257.6a50.17,50.17,0,0,0,49.85,50.48H65.69a50.2,50.2,0,0,0,49.89-50.48V144.49A50.23,50.23,0,0,0,101,108.74Z" transform="translate(-2.63 -12.31)"/><path class="cls-6" d="M14.87,257.6a40.78,40.78,0,0,0,40.76,40.63H65.69a40.82,40.82,0,0,0,40.8-40.63V201.3H14.87Z" transform="translate(-2.63 -12.31)"/><circle class="cls-6" cx="38.62" cy="151.58" r="7.67"/><circle class="cls-6" cx="46.29" cy="168.84" r="7.67"/><circle class="cls-6" cx="19.93" cy="179.62" r="7.67"/><circle class="cls-6" cx="58.03" cy="180.58" r="7.67"/><circle class="cls-6" cx="55.87" cy="139.12" r="7.67"/><circle class="cls-6" cx="74.33" cy="127.86" r="7.67"/><circle class="cls-6" cx="23.28" cy="162.13" r="7.67"/><circle class="cls-6" cx="35.26" cy="130.5" r="7.67"/><circle class="cls-6" cx="74.33" cy="107.01" r="7.67"/><circle class="cls-6" cx="92.06" cy="120.19" r="7.67"/><circle class="cls-6" cx="96.14" cy="146.79" r="7.67"/><circle class="cls-6" cx="22.56" cy="151.44" r="7.67" transform="translate(-133.14 135.67) rotate(-80.24)"/><circle class="cls-6" cx="35.26" cy="109.41" r="7.67"/><circle class="cls-6" cx="55.87" cy="114.68" r="7.67"/><circle class="cls-6" cx="71.21" cy="146.79" r="7.67"/><circle class="cls-6" cx="61.62" cy="162.13" r="7.67"/><circle class="cls-6" cx="82" cy="164.29" r="7.67"/><circle class="cls-6" cx="92.06" cy="179.62" r="7.67"/></g><g class="cls-7"><path class="cls-8" d="M114.19,253.61a45.84,45.84,0,0,1-45.35,45.93H58.78a45.8,45.8,0,0,1-45.31-45.93V140.49A45.84,45.84,0,0,1,26.73,108a45.27,45.27,0,0,1,32-13.69H68.84A45.31,45.31,0,0,1,100.91,108a45.87,45.87,0,0,1,13.28,32.48Zm-10-148.86a49.67,49.67,0,0,0-35.33-15H58.78a49.63,49.63,0,0,0-35.31,15A50.21,50.21,0,0,0,8.93,140.49V253.61a50.17,50.17,0,0,0,49.85,50.48H68.84a50.2,50.2,0,0,0,49.89-50.48V140.49A50.23,50.23,0,0,0,104.18,104.74Z" transform="translate(-2.63 -12.31)"/><path class="cls-8" d="M18,253.61a40.78,40.78,0,0,0,40.76,40.63H68.84a40.82,40.82,0,0,0,40.8-40.63V197.3H18Z" transform="translate(-2.63 -12.31)"/><circle class="cls-8" cx="41.77" cy="147.59" r="7.67"/><circle class="cls-8" cx="49.44" cy="164.84" r="7.67"/><circle class="cls-8" cx="23.07" cy="175.63" r="7.67"/><circle class="cls-8" cx="61.18" cy="176.59" r="7.67"/><circle class="cls-8" cx="59.02" cy="135.13" r="7.67"/><circle class="cls-8" cx="77.48" cy="123.86" r="7.67"/><circle class="cls-8" cx="26.43" cy="158.13" r="7.67"/><circle class="cls-8" cx="38.41" cy="126.5" r="7.67"/><circle class="cls-8" cx="77.48" cy="103.01" r="7.67"/><circle class="cls-8" cx="95.21" cy="116.19" r="7.67"/><circle class="cls-8" cx="99.28" cy="142.79" r="7.67"/><circle class="cls-8" cx="25.71" cy="147.44" r="7.67" transform="translate(-126.59 135.46) rotate(-80.24)"/><circle class="cls-8" cx="38.41" cy="105.41" r="7.67"/><circle class="cls-8" cx="59.02" cy="110.68" r="7.67"/><circle class="cls-8" cx="74.36" cy="142.79" r="7.67"/><circle class="cls-8" cx="64.77" cy="158.13" r="7.67"/><circle class="cls-8" cx="85.15" cy="160.29" r="7.67"/><circle class="cls-8" cx="95.21" cy="175.63" r="7.67"/></g><g class="cls-9"><path class="cls-10" d="M117.34,249.61A45.84,45.84,0,0,1,72,295.54H61.93a45.8,45.8,0,0,1-45.31-45.93V136.49A45.84,45.84,0,0,1,29.88,104a45.27,45.27,0,0,1,32-13.69H72A45.31,45.31,0,0,1,104.06,104a45.87,45.87,0,0,1,13.28,32.48Zm-10-148.86A49.67,49.67,0,0,0,72,85.77H61.93a49.63,49.63,0,0,0-35.31,15,50.21,50.21,0,0,0-14.54,35.75V249.61a50.17,50.17,0,0,0,49.85,50.48H72a50.2,50.2,0,0,0,49.89-50.48V136.49A50.23,50.23,0,0,0,107.33,100.75Z" transform="translate(-2.63 -12.31)"/><path class="cls-10" d="M21.17,249.61a40.78,40.78,0,0,0,40.76,40.63H72a40.82,40.82,0,0,0,40.8-40.63v-56.3H21.17Z" transform="translate(-2.63 -12.31)"/><circle class="cls-10" cx="44.92" cy="143.59" r="7.67"/><circle class="cls-10" cx="52.59" cy="160.84" r="7.67"/><circle class="cls-10" cx="26.22" cy="171.63" r="7.67"/><circle class="cls-10" cx="64.33" cy="172.59" r="7.67"/><circle class="cls-10" cx="62.17" cy="131.13" r="7.67"/><circle class="cls-10" cx="80.63" cy="119.87" r="7.67"/><circle class="cls-10" cx="29.58" cy="154.14" r="7.67"/><circle class="cls-10" cx="41.56" cy="122.5" r="7.67"/><circle class="cls-10" cx="80.63" cy="99.02" r="7.67"/><circle class="cls-10" cx="98.36" cy="112.2" r="7.67"/><circle class="cls-10" cx="102.43" cy="138.8" r="7.67"/><circle class="cls-10" cx="28.86" cy="143.44" r="7.67" transform="translate(-120.03 135.24) rotate(-80.24)"/><circle class="cls-10" cx="41.56" cy="101.41" r="7.67"/><circle class="cls-10" cx="62.17" cy="106.68" r="7.67"/><circle class="cls-10" cx="77.51" cy="138.8" r="7.67"/><circle class="cls-10" cx="67.92" cy="154.14" r="7.67"/><circle class="cls-10" cx="88.29" cy="156.29" r="7.67"/><circle class="cls-10" cx="98.36" cy="171.63" r="7.67"/></g><g class="cls-11"><path class="cls-12" d="M120.49,245.61a45.84,45.84,0,0,1-45.35,45.93H65.08a45.8,45.8,0,0,1-45.31-45.93V132.5A45.84,45.84,0,0,1,33,100a45.27,45.27,0,0,1,32-13.69H75.14A45.31,45.31,0,0,1,107.21,100a45.87,45.87,0,0,1,13.28,32.48Zm-10-148.86a49.67,49.67,0,0,0-35.33-15H65.08a49.63,49.63,0,0,0-35.31,15A50.21,50.21,0,0,0,15.23,132.5V245.61a50.17,50.17,0,0,0,49.85,50.48H75.14A50.2,50.2,0,0,0,125,245.61V132.5A50.23,50.23,0,0,0,110.48,96.75Z" transform="translate(-2.63 -12.31)"/><path class="cls-12" d="M24.31,245.61a40.78,40.78,0,0,0,40.76,40.63H75.14a40.82,40.82,0,0,0,40.8-40.63v-56.3H24.31Z" transform="translate(-2.63 -12.31)"/><circle class="cls-12" cx="48.07" cy="139.59" r="7.67"/><circle class="cls-12" cx="55.73" cy="156.85" r="7.67"/><circle class="cls-12" cx="29.37" cy="167.63" r="7.67"/><circle class="cls-12" cx="67.48" cy="168.59" r="7.67"/><circle class="cls-12" cx="65.32" cy="127.13" r="7.67"/><circle class="cls-12" cx="83.77" cy="115.87" r="7.67"/><circle class="cls-12" cx="32.73" cy="150.14" r="7.67"/><circle class="cls-12" cx="44.71" cy="118.51" r="7.67"/><circle class="cls-12" cx="83.77" cy="95.02" r="7.67"/><circle class="cls-12" cx="101.51" cy="108.2" r="7.67"/><circle class="cls-12" cx="105.58" cy="134.8" r="7.67"/><circle class="cls-12" cx="32" cy="139.45" r="7.67" transform="translate(-113.48 135.02) rotate(-80.24)"/><circle class="cls-12" cx="44.71" cy="97.42" r="7.67"/><circle class="cls-12" cx="65.32" cy="102.69" r="7.67"/><circle class="cls-12" cx="80.66" cy="134.8" r="7.67"/><circle class="cls-12" cx="71.07" cy="150.14" r="7.67"/><circle class="cls-12" cx="91.44" cy="152.3" r="7.67"/><circle class="cls-12" cx="101.51" cy="167.63" r="7.67"/></g><g class="cls-13"><path class="cls-14" d="M123.64,241.61a45.84,45.84,0,0,1-45.35,45.93H68.23a45.8,45.8,0,0,1-45.31-45.93V128.5A45.84,45.84,0,0,1,36.18,96a45.27,45.27,0,0,1,32-13.69H78.29A45.31,45.31,0,0,1,110.36,96a45.87,45.87,0,0,1,13.28,32.48Zm-10-148.86a49.67,49.67,0,0,0-35.33-15H68.23a49.63,49.63,0,0,0-35.31,15A50.21,50.21,0,0,0,18.38,128.5V241.61a50.17,50.17,0,0,0,49.85,50.48H78.29a50.2,50.2,0,0,0,49.89-50.48V128.5A50.23,50.23,0,0,0,113.62,92.75Z" transform="translate(-2.63 -12.31)"/><path class="cls-14" d="M27.46,241.61a40.78,40.78,0,0,0,40.76,40.63H78.29a40.82,40.82,0,0,0,40.8-40.63v-56.3H27.46Z" transform="translate(-2.63 -12.31)"/><circle class="cls-14" cx="51.21" cy="135.6" r="7.67"/><circle class="cls-14" cx="58.88" cy="152.85" r="7.67"/><circle class="cls-14" cx="32.52" cy="163.64" r="7.67"/><circle class="cls-14" cx="70.63" cy="164.6" r="7.67"/><circle class="cls-14" cx="68.47" cy="123.13" r="7.67"/><circle class="cls-14" cx="86.92" cy="111.87" r="7.67"/><circle class="cls-14" cx="35.88" cy="146.14" r="7.67"/><circle class="cls-14" cx="47.86" cy="114.51" r="7.67"/><circle class="cls-14" cx="86.92" cy="91.02" r="7.67"/><circle class="cls-14" cx="104.66" cy="104.2" r="7.67"/><circle class="cls-14" cx="108.73" cy="130.8" r="7.67"/><circle class="cls-14" cx="35.15" cy="135.45" r="7.67" transform="translate(-106.93 134.81) rotate(-80.24)"/><circle class="cls-14" cx="47.86" cy="93.42" r="7.67"/><circle class="cls-14" cx="68.47" cy="98.69" r="7.67"/><circle class="cls-14" cx="83.81" cy="130.8" r="7.67"/><circle class="cls-14" cx="74.22" cy="146.14" r="7.67"/><circle class="cls-14" cx="94.59" cy="148.3" r="7.67"/><circle class="cls-14" cx="104.66" cy="163.64" r="7.67"/></g><g class="cls-15"><path class="cls-16" d="M126.79,237.62a45.84,45.84,0,0,1-45.35,45.93H71.37a45.8,45.8,0,0,1-45.31-45.93V124.5A45.84,45.84,0,0,1,39.33,92a45.27,45.27,0,0,1,32-13.69H81.44A45.31,45.31,0,0,1,113.51,92a45.87,45.87,0,0,1,13.28,32.48Zm-10-148.86a49.67,49.67,0,0,0-35.33-15H71.37a49.63,49.63,0,0,0-35.32,15A50.21,50.21,0,0,0,21.52,124.5V237.62a50.17,50.17,0,0,0,49.85,50.48H81.44a50.2,50.2,0,0,0,49.89-50.48V124.5A50.23,50.23,0,0,0,116.77,88.75Z" transform="translate(-2.63 -12.31)"/><path class="cls-16" d="M30.61,237.62a40.78,40.78,0,0,0,40.76,40.63H81.44a40.82,40.82,0,0,0,40.8-40.63v-56.3H30.61Z" transform="translate(-2.63 -12.31)"/><circle class="cls-16" cx="54.36" cy="131.6" r="7.67"/><circle class="cls-16" cx="62.03" cy="148.85" r="7.67"/><circle class="cls-16" cx="35.67" cy="159.64" r="7.67"/><circle class="cls-16" cx="73.77" cy="160.6" r="7.67"/><circle class="cls-16" cx="71.62" cy="119.14" r="7.67"/><circle class="cls-16" cx="90.07" cy="107.87" r="7.67"/><circle class="cls-16" cx="39.03" cy="142.14" r="7.67"/><circle class="cls-16" cx="51.01" cy="110.51" r="7.67"/><circle class="cls-16" cx="90.07" cy="87.02" r="7.67"/><circle class="cls-16" cx="107.81" cy="100.21" r="7.67"/><circle class="cls-16" cx="111.88" cy="126.81" r="7.67"/><circle class="cls-16" cx="38.3" cy="131.45" r="7.67" transform="translate(-100.37 134.59) rotate(-80.24)"/><circle class="cls-16" cx="51.01" cy="89.42" r="7.67"/><circle class="cls-16" cx="71.62" cy="94.69" r="7.67"/><circle class="cls-16" cx="86.96" cy="126.81" r="7.67"/><circle class="cls-16" cx="77.37" cy="142.14" r="7.67"/><circle class="cls-16" cx="97.74" cy="144.3" r="7.67"/><circle class="cls-16" cx="107.81" cy="159.64" r="7.67"/></g><g class="cls-17"><path class="cls-18" d="M129.94,233.62a45.84,45.84,0,0,1-45.35,45.93H74.52a45.8,45.8,0,0,1-45.31-45.93V120.51A45.84,45.84,0,0,1,42.47,88a45.27,45.27,0,0,1,32-13.69H84.59A45.31,45.31,0,0,1,116.66,88a45.87,45.87,0,0,1,13.28,32.48Zm-10-148.86a49.67,49.67,0,0,0-35.33-15H74.52a49.63,49.63,0,0,0-35.32,15,50.21,50.21,0,0,0-14.54,35.75V233.62A50.17,50.17,0,0,0,74.52,284.1H84.59a50.2,50.2,0,0,0,49.89-50.48V120.51A50.23,50.23,0,0,0,119.92,84.76Z" transform="translate(-2.63 -12.31)"/><path class="cls-18" d="M33.76,233.62a40.78,40.78,0,0,0,40.76,40.63H84.59a40.82,40.82,0,0,0,40.8-40.63v-56.3H33.76Z" transform="translate(-2.63 -12.31)"/><circle class="cls-18" cx="57.51" cy="127.6" r="7.67"/><circle class="cls-18" cx="65.18" cy="144.86" r="7.67"/><circle class="cls-18" cx="38.82" cy="155.64" r="7.67"/><circle class="cls-18" cx="76.92" cy="156.6" r="7.67"/><circle class="cls-18" cx="74.77" cy="115.14" r="7.67"/><circle class="cls-18" cx="93.22" cy="103.88" r="7.67"/><circle class="cls-18" cx="42.17" cy="138.15" r="7.67"/><circle class="cls-18" cx="54.16" cy="106.51" r="7.67"/><circle class="cls-18" cx="93.22" cy="83.03" r="7.67"/><circle class="cls-18" cx="110.95" cy="96.21" r="7.67"/><circle class="cls-18" cx="115.03" cy="122.81" r="7.67"/><circle class="cls-18" cx="41.45" cy="127.46" r="7.67" transform="matrix(0.17, -0.99, 0.99, 0.17, -93.82, 134.38)"/><circle class="cls-18" cx="54.16" cy="85.42" r="7.67"/><circle class="cls-18" cx="74.77" cy="90.7" r="7.67"/><circle class="cls-18" cx="90.11" cy="122.81" r="7.67"/><circle class="cls-18" cx="80.52" cy="138.15" r="7.67"/><circle class="cls-18" cx="100.89" cy="140.3" r="7.67"/><circle class="cls-18" cx="110.95" cy="155.64" r="7.67"/></g><g class="cls-19"><path class="cls-20" d="M133.09,229.62a45.84,45.84,0,0,1-45.35,45.93H77.67a45.8,45.8,0,0,1-45.31-45.93V116.51A45.84,45.84,0,0,1,45.62,84a45.27,45.27,0,0,1,32-13.69H87.74A45.32,45.32,0,0,1,119.81,84a45.87,45.87,0,0,1,13.28,32.48Zm-10-148.86a49.67,49.67,0,0,0-35.33-15H77.67a49.63,49.63,0,0,0-35.32,15,50.21,50.21,0,0,0-14.54,35.75V229.62A50.17,50.17,0,0,0,77.67,280.1H87.74a50.2,50.2,0,0,0,49.89-50.48V116.51A50.23,50.23,0,0,0,123.07,80.76Z" transform="translate(-2.63 -12.31)"/><path class="cls-20" d="M36.91,229.62a40.78,40.78,0,0,0,40.76,40.63H87.74a40.82,40.82,0,0,0,40.8-40.63v-56.3H36.91Z" transform="translate(-2.63 -12.31)"/><circle class="cls-20" cx="60.66" cy="123.61" r="7.67"/><circle class="cls-20" cx="68.33" cy="140.86" r="7.67"/><circle class="cls-20" cx="41.97" cy="151.64" r="7.67"/><circle class="cls-20" cx="80.07" cy="152.6" r="7.67"/><circle class="cls-20" cx="77.92" cy="111.14" r="7.67"/><circle class="cls-20" cx="96.37" cy="99.88" r="7.67"/><circle class="cls-20" cx="45.32" cy="134.15" r="7.67"/><circle class="cls-20" cx="57.31" cy="102.52" r="7.67"/><circle class="cls-20" cx="96.37" cy="79.03" r="7.67"/><circle class="cls-20" cx="114.1" cy="92.21" r="7.67"/><circle class="cls-20" cx="118.18" cy="118.81" r="7.67"/><circle class="cls-20" cx="44.6" cy="123.46" r="7.67" transform="translate(-87.27 134.16) rotate(-80.24)"/><circle class="cls-20" cx="57.31" cy="81.43" r="7.67"/><circle class="cls-20" cx="77.92" cy="86.7" r="7.67"/><circle class="cls-20" cx="93.25" cy="118.81" r="7.67"/><circle class="cls-20" cx="83.67" cy="134.15" r="7.67"/><circle class="cls-20" cx="104.04" cy="136.31" r="7.67"/><circle class="cls-20" cx="114.1" cy="151.64" r="7.67"/></g><g class="cls-21"><path class="cls-22" d="M136.23,225.63a45.84,45.84,0,0,1-45.35,45.93H80.82a45.8,45.8,0,0,1-45.31-45.93V112.51A45.84,45.84,0,0,1,48.77,80a45.27,45.27,0,0,1,32-13.69H90.88A45.32,45.32,0,0,1,123,80a45.87,45.87,0,0,1,13.28,32.48Zm-10-148.86a49.67,49.67,0,0,0-35.33-15H80.82a49.63,49.63,0,0,0-35.32,15A50.21,50.21,0,0,0,31,112.51V225.63A50.17,50.17,0,0,0,80.82,276.1H90.88a50.2,50.2,0,0,0,49.89-50.48V112.51A50.23,50.23,0,0,0,126.22,76.76Z" transform="translate(-2.63 -12.31)"/><path class="cls-22" d="M40.06,225.63a40.78,40.78,0,0,0,40.76,40.63H90.88a40.82,40.82,0,0,0,40.8-40.63v-56.3H40.06Z" transform="translate(-2.63 -12.31)"/><circle class="cls-22" cx="63.81" cy="119.61" r="7.67"/><circle class="cls-22" cx="71.48" cy="136.86" r="7.67"/><circle class="cls-22" cx="45.12" cy="147.65" r="7.67"/><circle class="cls-22" cx="83.22" cy="148.61" r="7.67"/><circle class="cls-22" cx="81.06" cy="107.15" r="7.67"/><circle class="cls-22" cx="99.52" cy="95.88" r="7.67"/><circle class="cls-22" cx="48.47" cy="130.15" r="7.67"/><circle class="cls-22" cx="60.45" cy="98.52" r="7.67"/><circle class="cls-22" cx="99.52" cy="75.03" r="7.67"/><circle class="cls-22" cx="117.25" cy="88.21" r="7.67"/><circle class="cls-22" cx="121.33" cy="114.82" r="7.67"/><circle class="cls-22" cx="47.75" cy="119.46" r="7.67" transform="translate(-80.71 133.94) rotate(-80.24)"/><circle class="cls-22" cx="60.45" cy="77.43" r="7.67"/><circle class="cls-22" cx="81.06" cy="82.7" r="7.67"/><circle class="cls-22" cx="96.4" cy="114.82" r="7.67"/><circle class="cls-22" cx="86.82" cy="130.15" r="7.67"/><circle class="cls-22" cx="107.19" cy="132.31" r="7.67"/><circle class="cls-22" cx="117.25" cy="147.65" r="7.67"/></g><g class="cls-23"><path class="cls-24" d="M139.38,221.63A45.84,45.84,0,0,1,94,267.56H84a45.8,45.8,0,0,1-45.31-45.93V108.52A45.84,45.84,0,0,1,51.92,76,45.27,45.27,0,0,1,84,62.34H94A45.32,45.32,0,0,1,126.1,76a45.87,45.87,0,0,1,13.28,32.48Zm-10-148.86A49.67,49.67,0,0,0,94,57.79H84a49.63,49.63,0,0,0-35.32,15,50.21,50.21,0,0,0-14.54,35.75V221.63A50.17,50.17,0,0,0,84,272.11H94a50.2,50.2,0,0,0,49.89-50.48V108.52A50.23,50.23,0,0,0,129.37,72.77Z" transform="translate(-2.63 -12.31)"/><path class="cls-24" d="M43.21,221.63A40.78,40.78,0,0,0,84,262.26H94a40.82,40.82,0,0,0,40.8-40.63v-56.3H43.21Z" transform="translate(-2.63 -12.31)"/><circle class="cls-24" cx="66.96" cy="115.61" r="7.67"/><circle class="cls-24" cx="74.63" cy="132.87" r="7.67"/><circle class="cls-24" cx="48.27" cy="143.65" r="7.67"/><circle class="cls-24" cx="86.37" cy="144.61" r="7.67"/><circle class="cls-24" cx="84.21" cy="103.15" r="7.67"/><circle class="cls-24" cx="102.67" cy="91.89" r="7.67"/><circle class="cls-24" cx="51.62" cy="126.16" r="7.67"/><circle class="cls-24" cx="63.6" cy="94.52" r="7.67"/><circle class="cls-24" cx="102.67" cy="71.04" r="7.67"/><circle class="cls-24" cx="120.4" cy="84.22" r="7.67"/><circle class="cls-24" cx="124.47" cy="110.82" r="7.67"/><circle class="cls-24" cx="50.9" cy="115.47" r="7.67" transform="translate(-74.16 133.73) rotate(-80.24)"/><circle class="cls-24" cx="63.6" cy="73.43" r="7.67"/><circle class="cls-24" cx="84.21" cy="78.71" r="7.67"/><circle class="cls-24" cx="99.55" cy="110.82" r="7.67"/><circle class="cls-24" cx="89.96" cy="126.16" r="7.67"/><circle class="cls-24" cx="110.34" cy="128.31" r="7.67"/><circle class="cls-24" cx="120.4" cy="143.65" r="7.67"/></g><g class="cls-25"><path class="cls-26" d="M142.53,217.63a45.84,45.84,0,0,1-45.35,45.93H87.12a45.8,45.8,0,0,1-45.31-45.93V104.52A45.84,45.84,0,0,1,55.07,72a45.27,45.27,0,0,1,32-13.69H97.18A45.32,45.32,0,0,1,129.25,72a45.87,45.87,0,0,1,13.28,32.48Zm-10-148.86a49.67,49.67,0,0,0-35.33-15H87.12a49.63,49.63,0,0,0-35.32,15,50.21,50.21,0,0,0-14.54,35.75V217.63a50.17,50.17,0,0,0,49.85,50.48H97.18a50.2,50.2,0,0,0,49.89-50.48V104.52A50.23,50.23,0,0,0,132.52,68.77Z" transform="translate(-2.63 -12.31)"/><path class="cls-26" d="M46.36,217.63a40.78,40.78,0,0,0,40.76,40.63H97.18A40.82,40.82,0,0,0,138,217.63v-56.3H46.36Z" transform="translate(-2.63 -12.31)"/><circle class="cls-26" cx="70.11" cy="111.62" r="7.67"/><circle class="cls-26" cx="77.78" cy="128.87" r="7.67"/><circle class="cls-26" cx="51.41" cy="139.65" r="7.67"/><circle class="cls-26" cx="89.52" cy="140.61" r="7.67"/><circle class="cls-26" cx="87.36" cy="99.15" r="7.67"/><circle class="cls-26" cx="105.82" cy="87.89" r="7.67"/><circle class="cls-26" cx="54.77" cy="122.16" r="7.67"/><circle class="cls-26" cx="66.75" cy="90.53" r="7.67"/><circle class="cls-26" cx="105.82" cy="67.04" r="7.67"/><circle class="cls-26" cx="123.55" cy="80.22" r="7.67"/><circle class="cls-26" cx="127.62" cy="106.82" r="7.67"/><circle class="cls-26" cx="54.05" cy="111.47" r="7.67" transform="translate(-67.6 133.51) rotate(-80.24)"/><circle class="cls-26" cx="66.75" cy="69.44" r="7.67"/><circle class="cls-26" cx="87.36" cy="74.71" r="7.67"/><circle class="cls-26" cx="102.7" cy="106.82" r="7.67"/><circle class="cls-26" cx="93.11" cy="122.16" r="7.67"/><circle class="cls-26" cx="113.48" cy="124.32" r="7.67"/><circle class="cls-26" cx="123.55" cy="139.65" r="7.67"/></g><g class="cls-27"><path class="cls-28" d="M145.68,213.64a45.84,45.84,0,0,1-45.35,45.93H90.27A45.8,45.8,0,0,1,45,213.64V100.52A45.84,45.84,0,0,1,58.22,68a45.27,45.27,0,0,1,32-13.69h10.06A45.32,45.32,0,0,1,132.4,68a45.87,45.87,0,0,1,13.28,32.48Zm-10-148.86a49.67,49.67,0,0,0-35.33-15H90.27A49.63,49.63,0,0,0,55,64.77a50.21,50.21,0,0,0-14.54,35.75V213.64a50.17,50.17,0,0,0,49.85,50.48h10.06a50.2,50.2,0,0,0,49.89-50.48V100.52A50.23,50.23,0,0,0,135.67,64.77Z" transform="translate(-2.63 -12.31)"/><path class="cls-28" d="M49.51,213.64a40.78,40.78,0,0,0,40.76,40.63h10.06a40.82,40.82,0,0,0,40.8-40.63v-56.3H49.51Z" transform="translate(-2.63 -12.31)"/><circle class="cls-28" cx="73.26" cy="107.62" r="7.67"/><circle class="cls-28" cx="80.92" cy="124.87" r="7.67"/><circle class="cls-28" cx="54.56" cy="135.66" r="7.67"/><circle class="cls-28" cx="92.67" cy="136.62" r="7.67"/><circle class="cls-28" cx="90.51" cy="95.16" r="7.67"/><circle class="cls-28" cx="108.96" cy="83.89" r="7.67"/><circle class="cls-28" cx="57.92" cy="118.16" r="7.67"/><circle class="cls-28" cx="69.9" cy="86.53" r="7.67"/><circle class="cls-28" cx="108.96" cy="63.04" r="7.67"/><circle class="cls-28" cx="126.7" cy="76.22" r="7.67"/><circle class="cls-28" cx="130.77" cy="102.83" r="7.67"/><circle class="cls-28" cx="57.2" cy="107.47" r="7.67" transform="translate(-61.05 133.3) rotate(-80.24)"/><circle class="cls-28" cx="69.9" cy="65.44" r="7.67"/><circle class="cls-28" cx="90.51" cy="70.71" r="7.67"/><circle class="cls-28" cx="105.85" cy="102.83" r="7.67"/><circle class="cls-28" cx="96.26" cy="118.16" r="7.67"/><circle class="cls-28" cx="116.63" cy="120.32" r="7.67"/><circle class="cls-28" cx="126.7" cy="135.66" r="7.67"/></g><g class="cls-29"><path class="cls-30" d="M148.83,209.64a45.84,45.84,0,0,1-45.35,45.93H93.42a45.8,45.8,0,0,1-45.31-45.93V96.52A45.84,45.84,0,0,1,61.37,64a45.27,45.27,0,0,1,32-13.69h10.06A45.32,45.32,0,0,1,135.55,64a45.87,45.87,0,0,1,13.28,32.48Zm-10-148.86a49.67,49.67,0,0,0-35.33-15H93.42a49.63,49.63,0,0,0-35.32,15A50.21,50.21,0,0,0,43.56,96.52V209.64a50.17,50.17,0,0,0,49.85,50.48h10.06a50.2,50.2,0,0,0,49.89-50.48V96.52A50.23,50.23,0,0,0,138.81,60.78Z" transform="translate(-2.63 -12.31)"/><path class="cls-30" d="M52.65,209.64a40.78,40.78,0,0,0,40.76,40.63h10.06a40.82,40.82,0,0,0,40.8-40.63v-56.3H52.65Z" transform="translate(-2.63 -12.31)"/><circle class="cls-30" cx="76.41" cy="103.62" r="7.67"/><circle class="cls-30" cx="84.07" cy="120.88" r="7.67"/><circle class="cls-30" cx="57.71" cy="131.66" r="7.67"/><circle class="cls-30" cx="95.82" cy="132.62" r="7.67"/><circle class="cls-30" cx="93.66" cy="91.16" r="7.67"/><circle class="cls-30" cx="112.11" cy="79.9" r="7.67"/><circle class="cls-30" cx="61.07" cy="114.17" r="7.67"/><circle class="cls-30" cx="73.05" cy="82.53" r="7.67"/><circle class="cls-30" cx="112.11" cy="59.05" r="7.67"/><circle class="cls-30" cx="129.85" cy="72.23" r="7.67"/><circle class="cls-30" cx="133.92" cy="98.83" r="7.67"/><circle class="cls-30" cx="60.34" cy="103.47" r="7.67" transform="translate(-54.5 133.08) rotate(-80.24)"/><circle class="cls-30" cx="73.05" cy="61.44" r="7.67"/><circle class="cls-30" cx="93.66" cy="66.72" r="7.67"/><circle class="cls-30" cx="109" cy="98.83" r="7.67"/><circle class="cls-30" cx="99.41" cy="114.17" r="7.67"/><circle class="cls-30" cx="119.78" cy="116.32" r="7.67"/><circle class="cls-30" cx="129.85" cy="131.66" r="7.67"/></g><g class="cls-31"><path class="cls-32" d="M152,205.64a45.84,45.84,0,0,1-45.35,45.93H96.56a45.8,45.8,0,0,1-45.31-45.93V92.53A45.84,45.84,0,0,1,64.52,60a45.27,45.27,0,0,1,32-13.69h10.06A45.32,45.32,0,0,1,138.7,60,45.87,45.87,0,0,1,152,92.53ZM142,56.78a49.67,49.67,0,0,0-35.33-15H96.56a49.63,49.63,0,0,0-35.32,15A50.21,50.21,0,0,0,46.71,92.53V205.64a50.17,50.17,0,0,0,49.85,50.48h10.06a50.2,50.2,0,0,0,49.89-50.48V92.53A50.23,50.23,0,0,0,142,56.78Z" transform="translate(-2.63 -12.31)"/><path class="cls-32" d="M55.8,205.64a40.78,40.78,0,0,0,40.76,40.63h10.06a40.82,40.82,0,0,0,40.8-40.63v-56.3H55.8Z" transform="translate(-2.63 -12.31)"/><circle class="cls-32" cx="79.55" cy="99.62" r="7.67"/><circle class="cls-32" cx="87.22" cy="116.88" r="7.67"/><circle class="cls-32" cx="60.86" cy="127.66" r="7.67"/><circle class="cls-32" cx="98.97" cy="128.62" r="7.67"/><circle class="cls-32" cx="96.81" cy="87.16" r="7.67"/><circle class="cls-32" cx="115.26" cy="75.9" r="7.67"/><circle class="cls-32" cx="64.22" cy="110.17" r="7.67"/><circle class="cls-32" cx="76.2" cy="78.54" r="7.67"/><circle class="cls-32" cx="115.26" cy="55.05" r="7.67"/><circle class="cls-32" cx="133" cy="68.23" r="7.67"/><circle class="cls-32" cx="137.07" cy="94.83" r="7.67"/><circle class="cls-32" cx="63.49" cy="99.48" r="7.67" transform="translate(-47.94 132.86) rotate(-80.24)"/><circle class="cls-32" cx="76.2" cy="57.45" r="7.67"/><circle class="cls-32" cx="96.81" cy="62.72" r="7.67"/><circle class="cls-32" cx="112.15" cy="94.83" r="7.67"/><circle class="cls-32" cx="102.56" cy="110.17" r="7.67"/><circle class="cls-32" cx="122.93" cy="112.33" r="7.67"/><circle class="cls-32" cx="133" cy="127.66" r="7.67"/></g><g class="cls-33"><path class="cls-34" d="M155.13,201.65a45.84,45.84,0,0,1-45.35,45.93H99.71a45.8,45.8,0,0,1-45.31-45.93V88.53A45.84,45.84,0,0,1,67.67,56a45.27,45.27,0,0,1,32-13.69h10.06A45.32,45.32,0,0,1,141.85,56a45.87,45.87,0,0,1,13.28,32.48Zm-10-148.86a49.67,49.67,0,0,0-35.33-15H99.71a49.63,49.63,0,0,0-35.32,15A50.21,50.21,0,0,0,49.86,88.53V201.65a50.17,50.17,0,0,0,49.85,50.48h10.06a50.2,50.2,0,0,0,49.89-50.48V88.53A50.23,50.23,0,0,0,145.11,52.78Z" transform="translate(-2.63 -12.31)"/><path class="cls-34" d="M59,201.65a40.78,40.78,0,0,0,40.76,40.63h10.06a40.82,40.82,0,0,0,40.8-40.63v-56.3H59Z" transform="translate(-2.63 -12.31)"/><circle class="cls-34" cx="82.7" cy="95.63" r="7.67"/><circle class="cls-34" cx="90.37" cy="112.88" r="7.67"/><circle class="cls-34" cx="64.01" cy="123.67" r="7.67"/><circle class="cls-34" cx="102.11" cy="124.63" r="7.67"/><circle class="cls-34" cx="99.96" cy="83.17" r="7.67"/><circle class="cls-34" cx="118.41" cy="71.9" r="7.67"/><circle class="cls-34" cx="67.36" cy="106.17" r="7.67"/><circle class="cls-34" cx="79.35" cy="74.54" r="7.67"/><circle class="cls-34" cx="118.41" cy="51.05" r="7.67"/><circle class="cls-34" cx="136.14" cy="64.23" r="7.67"/><circle class="cls-34" cx="140.22" cy="90.84" r="7.67"/><circle class="cls-34" cx="66.64" cy="95.48" r="7.67" transform="translate(-41.39 132.65) rotate(-80.24)"/><circle class="cls-34" cx="79.35" cy="53.45" r="7.67"/><circle class="cls-34" cx="99.96" cy="58.72" r="7.67"/><circle class="cls-34" cx="115.3" cy="90.84" r="7.67"/><circle class="cls-34" cx="105.71" cy="106.17" r="7.67"/><circle class="cls-34" cx="126.08" cy="108.33" r="7.67"/><circle class="cls-34" cx="136.14" cy="123.67" r="7.67"/></g><g class="cls-35"><path class="cls-36" d="M158.28,197.65a45.84,45.84,0,0,1-45.35,45.93H102.86a45.8,45.8,0,0,1-45.31-45.93V84.53A45.84,45.84,0,0,1,70.81,52a45.27,45.27,0,0,1,32-13.69h10.06A45.32,45.32,0,0,1,145,52a45.87,45.87,0,0,1,13.28,32.48Zm-10-148.86a49.67,49.67,0,0,0-35.33-15H102.86a49.63,49.63,0,0,0-35.32,15A50.21,50.21,0,0,0,53,84.53V197.65a50.17,50.17,0,0,0,49.85,50.48h10.06a50.2,50.2,0,0,0,49.89-50.48V84.53A50.23,50.23,0,0,0,148.26,48.78Z" transform="translate(-2.63 -12.31)"/><path class="cls-36" d="M62.1,197.65a40.78,40.78,0,0,0,40.76,40.63h10.06a40.82,40.82,0,0,0,40.8-40.63v-56.3H62.1Z" transform="translate(-2.63 -12.31)"/><circle class="cls-36" cx="85.85" cy="91.63" r="7.67"/><circle class="cls-36" cx="93.52" cy="108.89" r="7.67"/><circle class="cls-36" cx="67.16" cy="119.67" r="7.67"/><circle class="cls-36" cx="105.26" cy="120.63" r="7.67"/><circle class="cls-36" cx="103.11" cy="79.17" r="7.67"/><circle class="cls-36" cx="121.56" cy="67.91" r="7.67"/><circle class="cls-36" cx="70.51" cy="102.18" r="7.67"/><circle class="cls-36" cx="82.5" cy="70.54" r="7.67"/><circle class="cls-36" cx="121.56" cy="47.06" r="7.67"/><circle class="cls-36" cx="139.29" cy="60.24" r="7.67"/><circle class="cls-36" cx="143.37" cy="86.84" r="7.67"/><circle class="cls-36" cx="69.79" cy="91.48" r="7.67" transform="translate(-34.84 132.43) rotate(-80.24)"/><circle class="cls-36" cx="82.5" cy="49.45" r="7.67"/><circle class="cls-36" cx="103.11" cy="54.72" r="7.67"/><circle class="cls-36" cx="118.44" cy="86.84" r="7.67"/><circle class="cls-36" cx="108.86" cy="102.18" r="7.67"/><circle class="cls-36" cx="129.23" cy="104.33" r="7.67"/><circle class="cls-36" cx="139.29" cy="119.67" r="7.67"/></g><g class="cls-37"><path class="cls-38" d="M161.42,193.65a45.84,45.84,0,0,1-45.35,45.93H106A45.8,45.8,0,0,1,60.7,193.65V80.54A45.84,45.84,0,0,1,74,48.05a45.27,45.27,0,0,1,32-13.69h10.06a45.32,45.32,0,0,1,32.07,13.69,45.87,45.87,0,0,1,13.28,32.48Zm-10-148.86a49.67,49.67,0,0,0-35.33-15H106a49.63,49.63,0,0,0-35.32,15A50.21,50.21,0,0,0,56.16,80.54V193.65A50.17,50.17,0,0,0,106,244.13h10.06A50.2,50.2,0,0,0,166,193.65V80.54A50.23,50.23,0,0,0,151.41,44.79Z" transform="translate(-2.63 -12.31)"/><path class="cls-38" d="M65.25,193.65A40.78,40.78,0,0,0,106,234.28h10.06a40.82,40.82,0,0,0,40.8-40.63v-56.3H65.25Z" transform="translate(-2.63 -12.31)"/><circle class="cls-38" cx="89" cy="87.63" r="7.67"/><circle class="cls-38" cx="96.67" cy="104.89" r="7.67"/><circle class="cls-38" cx="70.31" cy="115.67" r="7.67"/><circle class="cls-38" cx="108.41" cy="116.63" r="7.67"/><circle class="cls-38" cx="106.26" cy="75.17" r="7.67"/><circle class="cls-38" cx="124.71" cy="63.91" r="7.67"/><circle class="cls-38" cx="73.66" cy="98.18" r="7.67"/><circle class="cls-38" cx="85.64" cy="66.54" r="7.67"/><circle class="cls-38" cx="124.71" cy="43.06" r="7.67"/><circle class="cls-38" cx="142.44" cy="56.24" r="7.67"/><circle class="cls-38" cx="146.52" cy="82.84" r="7.67"/><circle class="cls-38" cx="72.94" cy="87.49" r="7.67" transform="translate(-28.28 132.22) rotate(-80.24)"/><circle class="cls-38" cx="85.64" cy="45.46" r="7.67"/><circle class="cls-38" cx="106.26" cy="50.73" r="7.67"/><circle class="cls-38" cx="121.59" cy="82.84" r="7.67"/><circle class="cls-38" cx="112.01" cy="98.18" r="7.67"/><circle class="cls-38" cx="132.38" cy="100.34" r="7.67"/><circle class="cls-38" cx="142.44" cy="115.67" r="7.67"/></g><g class="cls-39"><path class="cls-40" d="M164.57,189.65a45.84,45.84,0,0,1-45.35,45.93H109.16a45.8,45.8,0,0,1-45.31-45.93V76.54A45.84,45.84,0,0,1,77.11,44.06a45.27,45.27,0,0,1,32-13.69h10.06a45.32,45.32,0,0,1,32.07,13.69,45.87,45.87,0,0,1,13.28,32.48Zm-10-148.86a49.67,49.67,0,0,0-35.33-15H109.16a49.63,49.63,0,0,0-35.32,15A50.21,50.21,0,0,0,59.31,76.54V189.65a50.17,50.17,0,0,0,49.85,50.48h10.06a50.2,50.2,0,0,0,49.89-50.48V76.54A50.23,50.23,0,0,0,154.56,40.79Z" transform="translate(-2.63 -12.31)"/><path class="cls-40" d="M68.4,189.65a40.78,40.78,0,0,0,40.76,40.63h10.06A40.82,40.82,0,0,0,160,189.65v-56.3H68.4Z" transform="translate(-2.63 -12.31)"/><circle class="cls-40" cx="92.15" cy="83.64" r="7.67"/><circle class="cls-40" cx="99.82" cy="100.89" r="7.67"/><circle class="cls-40" cx="73.46" cy="111.68" r="7.67"/><circle class="cls-40" cx="111.56" cy="112.63" r="7.67"/><circle class="cls-40" cx="109.4" cy="71.18" r="7.67"/><circle class="cls-40" cx="127.86" cy="59.91" r="7.67"/><circle class="cls-40" cx="76.81" cy="94.18" r="7.67"/><circle class="cls-40" cx="88.79" cy="62.55" r="7.67"/><circle class="cls-40" cx="127.86" cy="39.06" r="7.67"/><circle class="cls-40" cx="145.59" cy="52.24" r="7.67"/><circle class="cls-40" cx="149.67" cy="78.84" r="7.67"/><circle class="cls-40" cx="76.09" cy="83.49" r="7.67" transform="translate(-21.73 132) rotate(-80.23)"/><circle class="cls-40" cx="88.79" cy="41.46" r="7.67"/><circle class="cls-40" cx="109.4" cy="46.73" r="7.67"/><circle class="cls-40" cx="124.74" cy="78.84" r="7.67"/><circle class="cls-40" cx="115.16" cy="94.18" r="7.67"/><circle class="cls-40" cx="135.53" cy="96.34" r="7.67"/><circle class="cls-40" cx="145.59" cy="111.68" r="7.67"/></g><g class="cls-41"><path class="cls-42" d="M167.72,185.66a45.84,45.84,0,0,1-45.35,45.93H112.31A45.8,45.8,0,0,1,67,185.66V72.54A45.84,45.84,0,0,1,80.26,40.06a45.27,45.27,0,0,1,32-13.69h10.06a45.32,45.32,0,0,1,32.07,13.69,45.87,45.87,0,0,1,13.28,32.48Zm-10-148.86a49.67,49.67,0,0,0-35.33-15H112.31A49.63,49.63,0,0,0,77,36.79,50.21,50.21,0,0,0,62.46,72.54V185.66a50.17,50.17,0,0,0,49.85,50.48h10.06a50.2,50.2,0,0,0,49.89-50.48V72.54A50.23,50.23,0,0,0,157.71,36.79Z" transform="translate(-2.63 -12.31)"/><path class="cls-42" d="M71.55,185.66a40.78,40.78,0,0,0,40.76,40.63h10.06a40.82,40.82,0,0,0,40.8-40.63v-56.3H71.55Z" transform="translate(-2.63 -12.31)"/><circle class="cls-42" cx="95.3" cy="79.64" r="7.67"/><circle class="cls-42" cx="102.97" cy="96.89" r="7.67"/><circle class="cls-42" cx="76.6" cy="107.68" r="7.67"/><circle class="cls-42" cx="114.71" cy="108.64" r="7.67"/><circle class="cls-42" cx="112.55" cy="67.18" r="7.67"/><circle class="cls-42" cx="131.01" cy="55.91" r="7.67"/><circle class="cls-42" cx="79.96" cy="90.18" r="7.67"/><circle class="cls-42" cx="91.94" cy="58.55" r="7.67"/><circle class="cls-42" cx="131.01" cy="35.07" r="7.67"/><circle class="cls-42" cx="148.74" cy="48.25" r="7.67"/><circle class="cls-42" cx="152.81" cy="74.85" r="7.67"/><circle class="cls-42" cx="79.24" cy="79.49" r="7.67" transform="translate(-15.18 131.78) rotate(-80.23)"/><circle class="cls-42" cx="91.94" cy="37.46" r="7.67"/><circle class="cls-42" cx="112.55" cy="42.73" r="7.67"/><circle class="cls-42" cx="127.89" cy="74.85" r="7.67"/><circle class="cls-42" cx="118.3" cy="90.18" r="7.67"/><circle class="cls-42" cx="138.68" cy="92.34" r="7.67"/><circle class="cls-42" cx="148.74" cy="107.68" r="7.67"/></g><g class="cls-43"><path class="cls-44" d="M170.87,181.66a45.84,45.84,0,0,1-45.35,45.93H115.46a45.8,45.8,0,0,1-45.31-45.93V68.55A45.84,45.84,0,0,1,83.41,36.06a45.27,45.27,0,0,1,32-13.69h10.06a45.32,45.32,0,0,1,32.07,13.69,45.87,45.87,0,0,1,13.28,32.48Zm-10-148.86a49.67,49.67,0,0,0-35.33-15H115.46a49.63,49.63,0,0,0-35.32,15A50.21,50.21,0,0,0,65.61,68.55V181.66a50.17,50.17,0,0,0,49.85,50.48h10.06a50.2,50.2,0,0,0,49.89-50.48V68.55A50.23,50.23,0,0,0,160.86,32.8Z" transform="translate(-2.63 -12.31)"/><path class="cls-44" d="M74.7,181.66a40.78,40.78,0,0,0,40.76,40.63h10.06a40.82,40.82,0,0,0,40.8-40.63v-56.3H74.7Z" transform="translate(-2.63 -12.31)"/><circle class="cls-44" cx="98.45" cy="75.64" r="7.67"/><circle class="cls-44" cx="106.12" cy="92.9" r="7.67"/><circle class="cls-44" cx="79.75" cy="103.68" r="7.67"/><circle class="cls-44" cx="117.86" cy="104.64" r="7.67"/><circle class="cls-44" cx="115.7" cy="63.18" r="7.67"/><circle class="cls-44" cx="134.15" cy="51.92" r="7.67"/><circle class="cls-44" cx="83.11" cy="86.19" r="7.67"/><circle class="cls-44" cx="95.09" cy="54.55" r="7.67"/><circle class="cls-44" cx="134.15" cy="31.07" r="7.67"/><circle class="cls-44" cx="151.89" cy="44.25" r="7.67"/><circle class="cls-44" cx="155.96" cy="70.85" r="7.67"/><circle class="cls-44" cx="82.39" cy="75.5" r="7.67" transform="translate(-8.62 131.57) rotate(-80.23)"/><circle class="cls-44" cx="95.09" cy="33.46" r="7.67"/><circle class="cls-44" cx="115.7" cy="38.74" r="7.67"/><circle class="cls-44" cx="131.04" cy="70.85" r="7.67"/><circle class="cls-44" cx="121.45" cy="86.19" r="7.67"/><circle class="cls-44" cx="141.82" cy="88.34" r="7.67"/><circle class="cls-44" cx="151.89" cy="103.68" r="7.67"/></g><path class="cls-45" d="M174,177.66a45.84,45.84,0,0,1-45.35,45.93H118.61A45.8,45.8,0,0,1,73.3,177.66V64.55A45.84,45.84,0,0,1,86.56,32.07a45.27,45.27,0,0,1,32-13.69h10.06a45.32,45.32,0,0,1,32.07,13.69A45.87,45.87,0,0,1,174,64.55ZM164,28.8a49.67,49.67,0,0,0-35.33-15H118.61a49.63,49.63,0,0,0-35.32,15A50.21,50.21,0,0,0,68.75,64.55V177.66a50.17,50.17,0,0,0,49.85,50.48h10.06a50.2,50.2,0,0,0,49.89-50.48V64.55A50.23,50.23,0,0,0,164,28.8Z" transform="translate(-2.63 -12.31)"/><path class="cls-45" d="M77.84,177.66a40.78,40.78,0,0,0,40.76,40.63h10.06a40.82,40.82,0,0,0,40.8-40.63v-56.3H77.84Z" transform="translate(-2.63 -12.31)"/><circle class="cls-45" cx="101.6" cy="71.65" r="7.67"/><circle class="cls-45" cx="109.26" cy="88.9" r="7.67"/><circle class="cls-45" cx="82.9" cy="99.69" r="7.67"/><circle class="cls-45" cx="121.01" cy="100.64" r="7.67"/><circle class="cls-45" cx="118.85" cy="59.18" r="7.67"/><circle class="cls-45" cx="137.3" cy="47.92" r="7.67"/><circle class="cls-45" cx="86.26" cy="82.19" r="7.67"/><circle class="cls-45" cx="98.24" cy="50.56" r="7.67"/><circle class="cls-45" cx="137.3" cy="27.07" r="7.67"/><circle class="cls-45" cx="155.04" cy="40.25" r="7.67"/><circle class="cls-45" cx="159.11" cy="66.85" r="7.67"/><circle class="cls-45" cx="85.53" cy="71.5" r="7.67" transform="translate(-2.07 131.35) rotate(-80.23)"/><circle class="cls-45" cx="98.24" cy="29.47" r="7.67"/><circle class="cls-45" cx="118.85" cy="34.74" r="7.67"/><circle class="cls-45" cx="134.19" cy="66.85" r="7.67"/><circle class="cls-45" cx="124.6" cy="82.19" r="7.67"/><circle class="cls-45" cx="144.97" cy="84.35" r="7.67"/><circle class="cls-45" cx="155.04" cy="99.69" r="7.67"/></g><path class="cls-4" d="M165.52,27.29a49.67,49.67,0,0,0-35.33-15H120.12a49.63,49.63,0,0,0-35.31,15A50.21,50.21,0,0,0,70.27,63V176.15a50.17,50.17,0,0,0,49.85,50.48h10.06a50.2,50.2,0,0,0,49.89-50.48V63A50.23,50.23,0,0,0,165.52,27.29Zm10,148.86a45.84,45.84,0,0,1-45.35,45.93H120.12a45.8,45.8,0,0,1-45.31-45.93V63A45.85,45.85,0,0,1,88.07,30.55a45.27,45.27,0,0,1,32.05-13.69h10.06a45.32,45.32,0,0,1,32.07,13.69A45.87,45.87,0,0,1,175.53,63Z" transform="translate(-2.63 -12.31)"/><path class="cls-4" d="M79.36,176.15a40.79,40.79,0,0,0,40.76,40.63h10.06A40.82,40.82,0,0,0,171,176.15v-56.3H79.36Z" transform="translate(-2.63 -12.31)"/><circle class="cls-4" cx="103.11" cy="70.13" r="7.67"/><circle class="cls-4" cx="110.78" cy="87.39" r="7.67"/><circle class="cls-4" cx="84.42" cy="98.17" r="7.67"/><circle class="cls-4" cx="122.52" cy="99.13" r="7.67"/><circle class="cls-4" cx="120.36" cy="57.67" r="7.67"/><circle class="cls-4" cx="138.82" cy="46.41" r="7.67"/><circle class="cls-4" cx="87.77" cy="80.68" r="7.67"/><circle class="cls-4" cx="99.75" cy="49.04" r="7.67"/><circle class="cls-4" cx="138.82" cy="25.56" r="7.67"/><circle class="cls-4" cx="156.55" cy="38.74" r="7.67"/><circle class="cls-4" cx="160.63" cy="65.34" r="7.67"/><circle class="cls-4" cx="87.05" cy="69.98" r="7.67" transform="translate(0.7 131.61) rotate(-80.25)"/><circle class="cls-4" cx="99.75" cy="27.95" r="7.67"/><circle class="cls-4" cx="120.36" cy="33.23" r="7.67"/><circle class="cls-4" cx="135.7" cy="65.34" r="7.67"/><circle class="cls-4" cx="126.12" cy="80.68" r="7.67"/><circle class="cls-4" cx="146.49" cy="82.83" r="7.67"/><circle class="cls-4" cx="156.55" cy="98.17" r="7.67"/><path class="cls-46" d="M164,28.8a49.67,49.67,0,0,0-35.33-15H118.61a49.63,49.63,0,0,0-35.32,15A50.21,50.21,0,0,0,68.75,64.55V177.66a50.17,50.17,0,0,0,49.85,50.48h10.06a50.2,50.2,0,0,0,49.89-50.48V64.55A50.23,50.23,0,0,0,164,28.8Zm10,148.86a45.84,45.84,0,0,1-45.35,45.93H118.61A45.8,45.8,0,0,1,73.3,177.66V64.55A45.84,45.84,0,0,1,86.56,32.07a45.27,45.27,0,0,1,32-13.69h10.06a45.32,45.32,0,0,1,32.07,13.69A45.87,45.87,0,0,1,174,64.55Z" transform="translate(-2.63 -12.31)"/><path class="cls-47" d="M77.84,177.66a40.78,40.78,0,0,0,40.76,40.63h10.06a40.82,40.82,0,0,0,40.8-40.63v-56.3H77.84Z" transform="translate(-2.63 -12.31)"/><circle class="cls-48" cx="101.6" cy="71.65" r="7.67"/><circle class="cls-49" cx="109.26" cy="88.9" r="7.67"/><circle class="cls-50" cx="82.9" cy="99.69" r="7.67"/><circle class="cls-51" cx="121.01" cy="100.64" r="7.67"/><circle class="cls-52" cx="118.85" cy="59.18" r="7.67"/><circle class="cls-53" cx="137.3" cy="47.92" r="7.67"/><circle class="cls-54" cx="86.26" cy="82.19" r="7.67"/><circle class="cls-55" cx="98.24" cy="50.56" r="7.67"/><circle class="cls-56" cx="137.3" cy="27.07" r="7.67"/><circle class="cls-57" cx="155.04" cy="40.25" r="7.67"/><circle class="cls-58" cx="159.11" cy="66.85" r="7.67"/><circle class="cls-59" cx="85.53" cy="71.5" r="7.67" transform="translate(-2.07 131.35) rotate(-80.23)"/><circle class="cls-60" cx="98.24" cy="29.47" r="7.67"/><circle class="cls-61" cx="118.85" cy="34.74" r="7.67"/><circle class="cls-62" cx="134.19" cy="66.85" r="7.67"/><circle class="cls-63" cx="124.6" cy="82.19" r="7.67"/><circle class="cls-64" cx="144.97" cy="84.35" r="7.67"/><circle class="cls-65" cx="155.04" cy="99.69" r="7.67"/></g></g></svg>