<svg xmlns="http://www.w3.org/2000/svg" xmlns:xlink="http://www.w3.org/1999/xlink" viewBox="0 0 279.13 265.15"><defs><style>.cls-1{isolation:isolate;}.cls-2{mix-blend-mode:multiply;}.cls-3{fill:#fff;opacity:0;}.cls-4{fill:#f3f2f2;opacity:0.03;}.cls-37,.cls-5{fill:#eae9e9;}.cls-5{opacity:0.06;}.cls-6{fill:#e2e1e1;opacity:0.1;}.cls-7{fill:#dbd9da;opacity:0.13;}.cls-8{fill:#d4d2d4;opacity:0.16;}.cls-9{fill:#cdcbcd;opacity:0.19;}.cls-10{fill:#c7c5c7;opacity:0.23;}.cls-11{fill:#c1bec1;opacity:0.26;}.cls-12{fill:#bbb8bb;opacity:0.29;}.cls-13{fill:#b5b2b5;opacity:0.32;}.cls-14{fill:#afacaf;opacity:0.35;}.cls-15{fill:#a9a6aa;opacity:0.39;}.cls-16{fill:#a3a0a4;opacity:0.42;}.cls-17{fill:#9e9b9f;opacity:0.45;}.cls-18{fill:#99959a;opacity:0.48;}.cls-19{fill:#939094;opacity:0.52;}.cls-20{fill:#8e8b90;opacity:0.55;}.cls-21{fill:#89868b;opacity:0.58;}.cls-22{fill:#848186;opacity:0.61;}.cls-23{fill:#7f7c81;opacity:0.65;}.cls-24{fill:#7a787d;opacity:0.68;}.cls-25{fill:#767379;opacity:0.71;}.cls-26{fill:#716f74;opacity:0.74;}.cls-27{fill:#6d6b70;opacity:0.77;}.cls-28{fill:#68676c;opacity:0.81;}.cls-29{fill:#646368;opacity:0.84;}.cls-30{fill:#605f65;opacity:0.87;}.cls-31{fill:#5c5b61;opacity:0.9;}.cls-32{fill:#57585d;opacity:0.94;}.cls-33{fill:#53545a;opacity:0.97;}.cls-34{fill:#4f5157;}.cls-35{fill:url(#radial-gradient);}.cls-36{fill:url(#radial-gradient-2);}.cls-37{opacity:0.06;}.cls-38{fill:#dcdadb;opacity:0.13;}.cls-39{fill:#cfcdce;opacity:0.19;}.cls-40{fill:#c2c0c2;opacity:0.25;}.cls-41{fill:#b7b4b7;opacity:0.31;}.cls-42{fill:#aba8ac;opacity:0.38;}.cls-43{fill:#a09da1;opacity:0.44;}.cls-44{fill:#969397;opacity:0.5;}.cls-45{fill:#8c898d;opacity:0.56;}.cls-46{fill:#827f84;opacity:0.63;}.cls-47{fill:#79767b;opacity:0.69;}.cls-48{fill:#706e73;opacity:0.75;}.cls-49{fill:#67666b;opacity:0.81;}.cls-50{fill:#5f5f64;opacity:0.88;}.cls-51{fill:#57575d;opacity:0.94;}.cls-52{fill:url(#radial-gradient-3);}.cls-53{font-size:48px;fill:#231f20;font-family:AmericanTypewriter, American Typewriter;}.cls-54{letter-spacing:-0.01em;}.cls-55{letter-spacing:-0.03em;}</style><radialGradient id="radial-gradient" cx="-362.22" cy="27.02" r="351.42" gradientTransform="matrix(-1, 0, 0, 1, -62.14, 0)" gradientUnits="userSpaceOnUse"><stop offset="0" stop-color="#ea9123"/><stop offset="0.22" stop-color="#e38a23"/><stop offset="0.54" stop-color="#cf7724"/><stop offset="0.92" stop-color="#af5925"/><stop offset="1" stop-color="#a75125"/></radialGradient><radialGradient id="radial-gradient-2" cx="-88.49" cy="259.46" r="365.5" xlink:href="#radial-gradient"/><radialGradient id="radial-gradient-3" cx="-329.85" cy="20.72" r="287.1" gradientTransform="matrix(-1, 0, 0, 1, -65.55, -6.76)" gradientUnits="userSpaceOnUse"><stop offset="0" stop-color="#fff"/><stop offset="0.47" stop-color="#e3e7ec"/><stop offset="1" stop-color="#bfc9d3"/></radialGradient></defs><title>text_bubble</title><g class="cls-1"><g id="Layer_10" data-name="Layer 10"><g class="cls-2"><path class="cls-3" d="M20.44,22.91h229.8a17.11,17.11,0,0,1,17,17.24V205a17.09,17.09,0,0,1-17,17.21H114.88L40.82,271.91l9-49.71H20.44A17.14,17.14,0,0,1,3.41,205V40.15A17.15,17.15,0,0,1,20.44,22.91Z" transform="translate(-3.41 -6.76)"/><path class="cls-4" d="M20.94,22.41h229.8a17.11,17.11,0,0,1,17,17.24V204.49a17.09,17.09,0,0,1-17,17.21H115.37L41.32,271.42l9-49.71H20.94a17.14,17.14,0,0,1-17-17.21V39.65A17.15,17.15,0,0,1,20.94,22.41Z" transform="translate(-3.41 -6.76)"/><path class="cls-5" d="M21.43,21.92h229.8a17.11,17.11,0,0,1,17,17.24V204a17.09,17.09,0,0,1-17,17.21H115.87L41.81,270.92l9-49.71H21.43A17.14,17.14,0,0,1,4.4,204V39.16A17.15,17.15,0,0,1,21.43,21.92Z" transform="translate(-3.41 -6.76)"/><path class="cls-6" d="M21.93,21.43h229.8a17.11,17.11,0,0,1,17,17.24V203.5a17.09,17.09,0,0,1-17,17.21H116.36L42.31,270.43l9-49.71H21.93a17.14,17.14,0,0,1-17-17.21V38.66A17.15,17.15,0,0,1,21.93,21.43Z" transform="translate(-3.41 -6.76)"/><path class="cls-7" d="M22.42,20.93h229.8a17.11,17.11,0,0,1,17,17.24V203a17.09,17.09,0,0,1-17,17.21H116.85L42.8,269.93l9-49.71H22.42A17.14,17.14,0,0,1,5.39,203V38.17A17.15,17.15,0,0,1,22.42,20.93Z" transform="translate(-3.41 -6.76)"/><path class="cls-8" d="M22.92,20.44h229.8a17.11,17.11,0,0,1,17,17.24V202.51a17.09,17.09,0,0,1-17,17.21H117.35L43.3,269.44l9-49.71H22.92a17.14,17.14,0,0,1-17-17.21V37.67A17.15,17.15,0,0,1,22.92,20.44Z" transform="translate(-3.41 -6.76)"/><path class="cls-9" d="M23.41,19.94h229.8a17.11,17.11,0,0,1,17,17.24V202a17.09,17.09,0,0,1-17,17.21H117.84L43.79,268.95l9-49.71H23.41A17.14,17.14,0,0,1,6.38,202V37.18A17.15,17.15,0,0,1,23.41,19.94Z" transform="translate(-3.41 -6.76)"/><path class="cls-10" d="M23.91,19.45H253.7a17.11,17.11,0,0,1,17,17.24V201.52a17.09,17.09,0,0,1-17,17.21H118.34L44.28,268.45l9-49.71H23.91a17.14,17.14,0,0,1-17-17.21V36.69A17.15,17.15,0,0,1,23.91,19.45Z" transform="translate(-3.41 -6.76)"/><path class="cls-11" d="M24.4,19H254.2a17.11,17.11,0,0,1,17,17.24V201a17.09,17.09,0,0,1-17,17.21H118.83L44.78,268l9-49.71H24.4A17.14,17.14,0,0,1,7.37,201V36.19A17.15,17.15,0,0,1,24.4,19Z" transform="translate(-3.41 -6.76)"/><path class="cls-12" d="M24.9,18.46h229.8a17.11,17.11,0,0,1,17,17.24V200.54a17.09,17.09,0,0,1-17,17.21H119.33L45.27,267.46l9-49.71H24.9a17.14,17.14,0,0,1-17-17.21V35.7A17.15,17.15,0,0,1,24.9,18.46Z" transform="translate(-3.41 -6.76)"/><path class="cls-13" d="M25.39,18h229.8a17.11,17.11,0,0,1,17,17.24V200a17.09,17.09,0,0,1-17,17.21H119.82L45.77,267l9-49.71H25.39A17.14,17.14,0,0,1,8.36,200V35.2A17.15,17.15,0,0,1,25.39,18Z" transform="translate(-3.41 -6.76)"/><path class="cls-14" d="M25.88,17.47h229.8a17.11,17.11,0,0,1,17,17.24V199.55a17.09,17.09,0,0,1-17,17.21H120.32L46.26,266.47l9-49.71H25.88a17.14,17.14,0,0,1-17-17.21V34.71A17.15,17.15,0,0,1,25.88,17.47Z" transform="translate(-3.41 -6.76)"/><path class="cls-15" d="M26.38,17h229.8a17.11,17.11,0,0,1,17,17.24V199.05a17.09,17.09,0,0,1-17,17.21H120.81L46.76,266l9-49.71H26.38a17.14,17.14,0,0,1-17-17.21V34.21A17.15,17.15,0,0,1,26.38,17Z" transform="translate(-3.41 -6.76)"/><path class="cls-16" d="M26.87,16.48h229.8a17.11,17.11,0,0,1,17,17.24V198.56a17.09,17.09,0,0,1-17,17.21H121.31L47.25,265.48l9-49.71H26.87a17.14,17.14,0,0,1-17-17.21V33.72A17.15,17.15,0,0,1,26.87,16.48Z" transform="translate(-3.41 -6.76)"/><path class="cls-17" d="M27.37,16h229.8a17.11,17.11,0,0,1,17,17.24V198.06a17.09,17.09,0,0,1-17,17.21H121.8L47.75,265l9-49.71H27.37a17.14,17.14,0,0,1-17-17.21V33.22A17.15,17.15,0,0,1,27.37,16Z" transform="translate(-3.41 -6.76)"/><path class="cls-18" d="M27.86,15.49h229.8a17.11,17.11,0,0,1,17,17.24V197.57a17.09,17.09,0,0,1-17,17.21H122.29L48.24,264.49l9-49.71H27.86a17.14,17.14,0,0,1-17-17.21V32.73A17.15,17.15,0,0,1,27.86,15.49Z" transform="translate(-3.41 -6.76)"/><path class="cls-19" d="M28.36,15h229.8a17.11,17.11,0,0,1,17,17.24V197.07a17.09,17.09,0,0,1-17,17.21H122.79L48.73,264l9-49.71H28.36a17.14,17.14,0,0,1-17-17.21V32.23A17.15,17.15,0,0,1,28.36,15Z" transform="translate(-3.41 -6.76)"/><path class="cls-20" d="M28.85,14.5h229.8a17.11,17.11,0,0,1,17,17.24V196.58a17.09,17.09,0,0,1-17,17.21H123.28L49.23,263.51l9-49.71H28.85a17.14,17.14,0,0,1-17-17.21V31.74A17.15,17.15,0,0,1,28.85,14.5Z" transform="translate(-3.41 -6.76)"/><path class="cls-21" d="M29.35,14h229.8a17.11,17.11,0,0,1,17,17.24V196.08a17.09,17.09,0,0,1-17,17.21H123.78L49.72,263l9-49.71H29.35a17.14,17.14,0,0,1-17-17.21V31.25A17.15,17.15,0,0,1,29.35,14Z" transform="translate(-3.41 -6.76)"/><path class="cls-22" d="M29.84,13.51h229.8a17.11,17.11,0,0,1,17,17.24V195.59a17.09,17.09,0,0,1-17,17.21H124.27L50.22,262.52l9-49.71H29.84a17.14,17.14,0,0,1-17-17.21V30.75A17.15,17.15,0,0,1,29.84,13.51Z" transform="translate(-3.41 -6.76)"/><path class="cls-23" d="M30.33,13h229.8a17.11,17.11,0,0,1,17,17.24V195.1a17.09,17.09,0,0,1-17,17.21H124.77L50.71,262l9-49.71H30.33a17.14,17.14,0,0,1-17-17.21V30.26A17.15,17.15,0,0,1,30.33,13Z" transform="translate(-3.41 -6.76)"/><path class="cls-24" d="M30.83,12.52h229.8a17.11,17.11,0,0,1,17,17.24V194.6a17.09,17.09,0,0,1-17,17.21H125.26L51.21,261.53l9-49.71H30.83a17.14,17.14,0,0,1-17-17.21V29.76A17.15,17.15,0,0,1,30.83,12.52Z" transform="translate(-3.41 -6.76)"/><path class="cls-25" d="M31.32,12h229.8a17.11,17.11,0,0,1,17,17.24V194.11a17.09,17.09,0,0,1-17,17.21H125.76L51.7,261l9-49.71H31.32a17.14,17.14,0,0,1-17-17.21V29.27A17.15,17.15,0,0,1,31.32,12Z" transform="translate(-3.41 -6.76)"/><path class="cls-26" d="M31.82,11.54h229.8a17.11,17.11,0,0,1,17,17.24V193.61a17.09,17.09,0,0,1-17,17.21H126.25L52.2,260.54l9-49.71H31.82a17.14,17.14,0,0,1-17-17.21V28.77A17.15,17.15,0,0,1,31.82,11.54Z" transform="translate(-3.41 -6.76)"/><path class="cls-27" d="M32.31,11h229.8a17.11,17.11,0,0,1,17,17.24V193.12a17.09,17.09,0,0,1-17,17.21H126.74L52.69,260l9-49.71H32.31a17.14,17.14,0,0,1-17-17.21V28.28A17.15,17.15,0,0,1,32.31,11Z" transform="translate(-3.41 -6.76)"/><path class="cls-28" d="M32.81,10.55H262.6a17.11,17.11,0,0,1,17,17.24V192.62a17.09,17.09,0,0,1-17,17.21H127.24L53.19,259.55l9-49.71H32.81a17.14,17.14,0,0,1-17-17.21V27.78A17.15,17.15,0,0,1,32.81,10.55Z" transform="translate(-3.41 -6.76)"/><path class="cls-29" d="M33.3,10.05H263.1a17.11,17.11,0,0,1,17,17.24V192.13a17.09,17.09,0,0,1-17,17.21H127.73L53.68,259.06l9-49.71H33.3a17.14,17.14,0,0,1-17-17.21V27.29A17.15,17.15,0,0,1,33.3,10.05Z" transform="translate(-3.41 -6.76)"/><path class="cls-30" d="M33.8,9.56h229.8a17.11,17.11,0,0,1,17,17.24V191.63a17.09,17.09,0,0,1-17,17.21H128.23L54.17,258.56l9-49.71H33.8a17.14,17.14,0,0,1-17-17.21V26.79A17.15,17.15,0,0,1,33.8,9.56Z" transform="translate(-3.41 -6.76)"/><path class="cls-31" d="M34.29,9.06H264.09a17.11,17.11,0,0,1,17,17.24V191.14a17.09,17.09,0,0,1-17,17.21H128.72L54.67,258.07l9-49.71H34.29a17.14,17.14,0,0,1-17-17.21V26.3A17.15,17.15,0,0,1,34.29,9.06Z" transform="translate(-3.41 -6.76)"/><path class="cls-32" d="M34.79,8.57H264.58a17.11,17.11,0,0,1,17,17.24V190.64a17.09,17.09,0,0,1-17,17.21H129.22L55.16,257.57l9-49.71H34.79a17.14,17.14,0,0,1-17-17.21V25.81A17.15,17.15,0,0,1,34.79,8.57Z" transform="translate(-3.41 -6.76)"/><path class="cls-33" d="M35.28,8.07H265.08a17.11,17.11,0,0,1,17,17.24V190.15a17.09,17.09,0,0,1-17,17.21H129.71L55.66,257.08l9-49.71H35.28a17.14,17.14,0,0,1-17-17.21V25.31A17.15,17.15,0,0,1,35.28,8.07Z" transform="translate(-3.41 -6.76)"/><path class="cls-34" d="M35.77,7.58H265.57a17.11,17.11,0,0,1,17,17.24V189.66a17.09,17.09,0,0,1-17,17.21H130.21L56.15,256.58l9-49.71H35.77a17.14,17.14,0,0,1-17-17.21V24.82A17.15,17.15,0,0,1,35.77,7.58Z" transform="translate(-3.41 -6.76)"/></g><path class="cls-35" d="M35.77,6.76H265.57c9.45,0,16.95,8.61,16.95,18.06V189.66c0,9.44-7.5,17.43-16.95,17.43H130.21L56.15,256.8l9-49.71H35.77a17.34,17.34,0,0,1-17-17.43V24.82C18.73,15.37,26.32,6.76,35.77,6.76Z" transform="translate(-3.41 -6.76)"/><path class="cls-36" d="M35.77,10.88H265.57a14,14,0,0,1,13.94,13.94V189.66a14,14,0,0,1-13.94,13.92H129.23l-68.59,46,8.36-46H35.77a14,14,0,0,1-13.94-13.92V24.82A14,14,0,0,1,35.77,10.88Z" transform="translate(-3.41 -6.76)"/><g class="cls-2"><rect class="cls-3" x="6.13" y="35.57" width="237.61" height="173.74" rx="21.3" ry="21.3"/><rect class="cls-37" x="7.55" y="34.15" width="237.61" height="173.74" rx="21.3" ry="21.3"/><rect class="cls-38" x="8.96" y="32.74" width="237.61" height="173.74" rx="21.3" ry="21.3"/><rect class="cls-39" x="10.37" y="31.33" width="237.61" height="173.74" rx="21.3" ry="21.3"/><rect class="cls-40" x="11.78" y="29.91" width="237.61" height="173.74" rx="21.3" ry="21.3"/><rect class="cls-41" x="13.2" y="28.5" width="237.61" height="173.74" rx="21.3" ry="21.3"/><rect class="cls-42" x="14.61" y="27.09" width="237.61" height="173.74" rx="21.3" ry="21.3"/><rect class="cls-43" x="16.02" y="25.68" width="237.61" height="173.74" rx="21.3" ry="21.3"/><rect class="cls-44" x="17.44" y="24.26" width="237.61" height="173.74" rx="21.3" ry="21.3"/><rect class="cls-45" x="18.85" y="22.85" width="237.61" height="173.74" rx="21.3" ry="21.3"/><rect class="cls-46" x="20.26" y="21.44" width="237.61" height="173.74" rx="21.3" ry="21.3"/><rect class="cls-47" x="21.68" y="20.02" width="237.61" height="173.74" rx="21.3" ry="21.3"/><rect class="cls-48" x="23.09" y="18.61" width="237.61" height="173.74" rx="21.3" ry="21.3"/><rect class="cls-49" x="24.5" y="17.2" width="237.61" height="173.74" rx="21.3" ry="21.3"/><rect class="cls-50" x="25.92" y="15.78" width="237.61" height="173.74" rx="21.3" ry="21.3"/><rect class="cls-51" x="27.33" y="14.37" width="237.61" height="173.74" rx="21.3" ry="21.3"/><rect class="cls-34" x="28.74" y="12.96" width="237.61" height="173.74" rx="21.3" ry="21.3"/></g><rect class="cls-52" x="29.84" y="13" width="237.03" height="174.33" rx="21.3" ry="21.3"/><text class="cls-53" transform="translate(70.33 80.7)"><tspan class="cls-54">T</tspan><tspan x="29.86" y="0">elling</tspan><tspan class="cls-55" x="-26.38" y="57.6">N</tspan><tspan x="9.05" y="57.6">umbers</tspan></text></g></g></svg>