<svg xmlns="http://www.w3.org/2000/svg" xmlns:xlink="http://www.w3.org/1999/xlink" viewBox="0 0 290.49 430.99"><defs><style>.cls-1{isolation:isolate;}.cls-2{mix-blend-mode:multiply;}.cls-25,.cls-3{fill:#fff;}.cls-3{opacity:0;}.cls-4{fill:#f9f9fa;opacity:0.05;}.cls-5{fill:#f4f5f6;opacity:0.1;}.cls-6{fill:#f0f1f3;opacity:0.14;}.cls-7{fill:#ecedf0;opacity:0.19;}.cls-8{fill:#e9eaed;opacity:0.24;}.cls-9{fill:#e5e7ea;opacity:0.29;}.cls-10{fill:#e1e3e8;opacity:0.33;}.cls-11{fill:#dee0e5;opacity:0.38;}.cls-12{fill:#dadde3;opacity:0.43;}.cls-13{fill:#d6dae0;opacity:0.48;}.cls-14{fill:#d3d7de;opacity:0.52;}.cls-15{fill:#cfd4db;opacity:0.57;}.cls-16{fill:#ccd1d9;opacity:0.62;}.cls-17{fill:#c8ced6;opacity:0.67;}.cls-18{fill:#c5cbd4;opacity:0.71;}.cls-19{fill:#c1c8d2;opacity:0.76;}.cls-20{fill:#bec6cf;opacity:0.81;}.cls-21{fill:#bbc3cd;opacity:0.86;}.cls-22{fill:#b7c0cb;opacity:0.9;}.cls-23{fill:#b4bdc9;opacity:0.95;}.cls-24{fill:#b1bac6;}.cls-26{fill:url(#radial-gradient);}</style><radialGradient id="radial-gradient" cx="36.5" cy="353.41" r="433.9" gradientUnits="userSpaceOnUse"><stop offset="0" stop-color="#fff"/><stop offset="0.22" stop-color="#f9fafb"/><stop offset="0.5" stop-color="#e9eef0"/><stop offset="0.82" stop-color="#ced8df"/><stop offset="1" stop-color="#bccad3"/></radialGradient></defs><title>tooth</title><g class="cls-1"><g id="Tooth"><g class="cls-2"><path class="cls-3" d="M103.37,61.83s9.51,3.85,14.54,8.61,10.79,5,17.32,0S170.86,56.66,190,57.13s32.5,7.74,41.92,21.11,15.39,39.27,8.15,77.48-20.89,76-23.74,89.07-5,26.62-5,26.62-2.91,28.82-2.11,44-5.3,52.9-5.3,52.9-3.19,42.21-15.4,57-27.32,12.45-32.3,1-8.41-11.85-10.41-50.93c0,0-.82-39.79-4.89-53.26s-5.76-22.46-16.31-25.55-15.4,14.64-15.4,14.64-6.48,18.47-7.62,45.47-.49,64.8-14.35,74.28-25.37-1.76-25.37-1.76-11-9.65-16.28-43.43-7.35-47.67-7.77-63.14-.5-52-6.6-75S12.4,179.5,12.4,179.5s-13.56-43.55-7.53-71.8S18.78,69.45,40,59C40,59,67.41,45.72,103.37,61.83Z" transform="translate(-3.32 -4.72)"/><path class="cls-4" d="M105.65,59.56s9.51,3.85,14.54,8.61,10.79,5,17.32,0,35.63-13.78,54.79-13.31,32.5,7.74,41.92,21.11,15.39,39.27,8.15,77.48-20.89,76-23.74,89.07-5,26.62-5,26.62-2.91,28.82-2.11,44-5.3,52.9-5.3,52.9-3.19,42.21-15.4,57-27.32,12.45-32.3,1-8.41-11.85-10.41-50.93c0,0-.82-39.79-4.89-53.26s-5.76-22.46-16.31-25.55S111.55,309,111.55,309s-6.48,18.47-7.62,45.47-.49,64.8-14.35,74.28S64.21,427,64.21,427s-11-9.65-16.28-43.43-7.35-47.67-7.77-63.14-.5-52-6.6-75-18.89-68.17-18.89-68.17-13.56-43.55-7.53-71.8S21.06,67.17,42.31,56.69C42.31,56.69,69.68,43.45,105.65,59.56Z" transform="translate(-3.32 -4.72)"/><path class="cls-5" d="M107.92,57.28s9.51,3.85,14.54,8.61,10.79,5,17.32,0,35.63-13.78,54.79-13.31,32.5,7.74,41.92,21.11,15.39,39.27,8.15,77.48-20.89,76-23.74,89.07-5,26.62-5,26.62-2.91,28.82-2.11,44-5.3,52.9-5.3,52.9-3.19,42.21-15.4,57-27.32,12.45-32.3,1-8.41-11.85-10.41-50.93c0,0-.82-39.79-4.89-53.26s-5.76-22.46-16.31-25.55-15.4,14.64-15.4,14.64-6.48,18.47-7.62,45.47-.49,64.8-14.35,74.28-25.37-1.76-25.37-1.76-11-9.65-16.28-43.43-7.35-47.67-7.77-63.14-.5-52-6.6-75S16.94,175,16.94,175,3.38,131.4,9.41,103.15,23.33,64.9,44.59,54.42C44.59,54.42,72,41.18,107.92,57.28Z" transform="translate(-3.32 -4.72)"/><path class="cls-6" d="M110.19,55s9.51,3.85,14.54,8.61,10.79,5,17.32,0,35.63-13.78,54.79-13.31,32.5,7.74,41.92,21.11,15.39,39.27,8.15,77.48S226,224.92,223.18,238s-5,26.62-5,26.62-2.91,28.82-2.11,44-5.3,52.9-5.3,52.9-3.19,42.21-15.4,57-27.32,12.45-32.3,1-8.41-11.85-10.41-50.93c0,0-.82-39.79-4.89-53.26s-5.76-22.46-16.31-25.55-15.4,14.64-15.4,14.64-6.48,18.47-7.62,45.47-.49,64.8-14.35,74.28-25.37-1.76-25.37-1.76-11-9.65-16.28-43.43-7.35-47.67-7.77-63.14-.5-52-6.6-75-18.89-68.17-18.89-68.17-13.56-43.55-7.53-71.8S25.6,62.63,46.86,52.14C46.86,52.14,74.23,38.9,110.19,55Z" transform="translate(-3.32 -4.72)"/><path class="cls-7" d="M112.47,52.74S122,56.58,127,61.35s10.79,5,17.32,0S180,47.57,199.11,48s32.5,7.74,41.92,21.11,15.39,39.27,8.15,77.48-20.89,76-23.74,89.07-5,26.62-5,26.62-2.91,28.82-2.11,44-5.3,52.9-5.3,52.9-3.19,42.21-15.4,57-27.32,12.45-32.3,1S157,405.42,155,366.33c0,0-.82-39.79-4.89-53.26s-5.76-22.46-16.31-25.55-15.4,14.64-15.4,14.64-6.48,18.47-7.62,45.47-.49,64.8-14.35,74.28S71,420.15,71,420.15s-11-9.65-16.28-43.43S47.39,329,47,313.57s-.5-52-6.6-75-18.89-68.17-18.89-68.17S7.93,126.85,14,98.61,27.87,60.35,49.13,49.87C49.13,49.87,76.5,36.63,112.47,52.74Z" transform="translate(-3.32 -4.72)"/><path class="cls-8" d="M114.74,50.46s9.51,3.85,14.54,8.61,10.79,5,17.32,0,35.63-13.78,54.79-13.31,32.5,7.74,41.92,21.11,15.39,39.27,8.15,77.48-20.89,76-23.74,89.07-5,26.62-5,26.62-2.91,28.82-2.11,44-5.3,52.9-5.3,52.9-3.19,42.21-15.4,57-27.32,12.45-32.3,1-8.41-11.85-10.41-50.93c0,0-.82-39.79-4.89-53.26S146.6,288.34,136,285.25s-15.4,14.64-15.4,14.64-6.48,18.47-7.62,45.47-.49,64.8-14.35,74.28-25.37-1.76-25.37-1.76-11-9.65-16.28-43.43-7.35-47.67-7.77-63.14-.5-52-6.6-75-18.89-68.17-18.89-68.17-13.56-43.55-7.53-71.8S30.15,58.08,51.41,47.6C51.41,47.6,78.78,34.36,114.74,50.46Z" transform="translate(-3.32 -4.72)"/><path class="cls-9" d="M117,48.19s9.51,3.85,14.54,8.61,10.79,5,17.32,0S184.5,43,203.66,43.49s32.5,7.74,41.92,21.11,15.39,39.27,8.15,77.48-20.89,76-23.74,89.07-5,26.62-5,26.62-2.91,28.82-2.11,44-5.3,52.9-5.3,52.9-3.19,42.21-15.4,57-27.32,12.45-32.3,1-8.41-11.85-10.41-50.93c0,0-.82-39.79-4.89-53.26s-5.76-22.46-16.31-25.55-15.4,14.64-15.4,14.64-6.48,18.47-7.62,45.47-.49,64.8-14.35,74.28-25.37-1.76-25.37-1.76-11-9.65-16.28-43.43S51.94,324.5,51.53,309s-.5-52-6.6-75S26,165.86,26,165.86s-13.56-43.55-7.53-71.8S32.42,55.81,53.68,45.33C53.68,45.33,81,32.08,117,48.19Z" transform="translate(-3.32 -4.72)"/><path class="cls-10" d="M119.29,45.92s9.51,3.85,14.54,8.61,10.79,5,17.32,0,35.63-13.78,54.79-13.31,32.5,7.74,41.92,21.11,15.39,39.27,8.15,77.48-20.89,76-23.74,89.07-5,26.62-5,26.62-2.91,28.82-2.11,44-5.3,52.9-5.3,52.9-3.19,42.21-15.4,57-27.32,12.45-32.3,1-8.41-11.85-10.41-50.93c0,0-.82-39.79-4.89-53.26s-5.76-22.46-16.31-25.55-15.4,14.64-15.4,14.64-6.48,18.47-7.62,45.47-.49,64.8-14.35,74.28-25.37-1.76-25.37-1.76-11-9.65-16.28-43.43-7.35-47.67-7.77-63.14-.5-52-6.6-75-18.89-68.17-18.89-68.17S14.75,120,20.78,91.79,34.69,53.54,56,43.05C56,43.05,83.32,29.81,119.29,45.92Z" transform="translate(-3.32 -4.72)"/><path class="cls-11" d="M121.56,43.64s9.51,3.85,14.54,8.61,10.79,5,17.32,0S189,38.48,208.2,38.94,240.7,46.68,250.13,60s15.39,39.27,8.15,77.48-20.89,76-23.74,89.07-5,26.62-5,26.62-2.91,28.82-2.11,44-5.3,52.9-5.3,52.9-3.19,42.21-15.4,57-27.32,12.45-32.3,1-8.41-11.85-10.41-50.93c0,0-.82-39.79-4.89-53.26s-5.76-22.46-16.31-25.55-15.4,14.64-15.4,14.64-6.48,18.47-7.62,45.47-.49,64.8-14.35,74.28-25.37-1.76-25.37-1.76-11-9.65-16.28-43.43S56.49,320,56.08,304.48s-.5-52-6.6-75-18.89-68.17-18.89-68.17S17,117.76,23,89.51,37,51.26,58.23,40.78C58.23,40.78,85.6,27.54,121.56,43.64Z" transform="translate(-3.32 -4.72)"/><path class="cls-12" d="M123.83,41.37s9.51,3.85,14.54,8.61,10.79,5,17.32,0,35.63-13.78,54.79-13.31S243,44.41,252.4,57.77s15.39,39.27,8.15,77.48-20.89,76-23.74,89.07-5,26.62-5,26.62-2.91,28.82-2.11,44-5.3,52.9-5.3,52.9-3.19,42.21-15.4,57-27.32,12.45-32.3,1-8.41-11.85-10.41-50.93c0,0-.82-39.79-4.89-53.26s-5.76-22.46-16.31-25.55-15.4,14.64-15.4,14.64-6.48,18.47-7.62,45.47-.49,64.8-14.35,74.28-25.37-1.76-25.37-1.76-11-9.65-16.28-43.43-7.35-47.67-7.77-63.14-.5-52-6.6-75S32.85,159,32.85,159s-13.56-43.55-7.53-71.8S39.24,49,60.5,38.51C60.5,38.51,87.87,25.26,123.83,41.37Z" transform="translate(-3.32 -4.72)"/><path class="cls-13" d="M126.1,39.1s9.51,3.85,14.54,8.61,10.79,5,17.32,0,35.63-13.78,54.79-13.31,32.5,7.74,41.92,21.11,15.39,39.27,8.15,77.48-20.89,76-23.74,89.07-5,26.62-5,26.62-2.91,28.82-2.11,44-5.3,52.9-5.3,52.9-3.19,42.21-15.4,57-27.32,12.45-32.3,1-8.41-11.85-10.41-50.93c0,0-.82-39.79-4.89-53.26S158,277,147.42,273.89,132,288.52,132,288.52,125.53,307,124.39,334s-.49,64.8-14.35,74.28-25.37-1.76-25.37-1.76-11-9.65-16.28-43.43S61,315.41,60.62,299.93s-.5-52-6.6-75-18.89-68.17-18.89-68.17S21.57,113.21,27.6,85,41.51,46.72,62.77,36.23C62.77,36.23,90.14,23,126.1,39.1Z" transform="translate(-3.32 -4.72)"/><path class="cls-14" d="M128.38,36.82s9.51,3.85,14.54,8.61,10.79,5,17.32,0S195.86,31.66,215,32.12s32.5,7.74,41.92,21.11,15.39,39.27,8.15,77.48-20.89,76-23.74,89.07-5,26.62-5,26.62-2.91,28.82-2.11,44-5.3,52.9-5.3,52.9-3.19,42.21-15.4,57-27.32,12.45-32.3,1-8.41-11.85-10.41-50.93c0,0-.82-39.79-4.89-53.26s-5.76-22.46-16.31-25.55-15.4,14.64-15.4,14.64-6.48,18.47-7.62,45.47-.49,64.8-14.35,74.28-25.37-1.76-25.37-1.76-11-9.65-16.28-43.43-7.35-47.67-7.77-63.14-.5-52-6.6-75S37.4,154.49,37.4,154.49s-13.56-43.55-7.53-71.8S43.79,44.44,65,34C65,34,92.42,20.72,128.38,36.82Z" transform="translate(-3.32 -4.72)"/><path class="cls-15" d="M130.65,34.55s9.51,3.85,14.54,8.61,10.79,5,17.32,0,35.63-13.78,54.79-13.31S249.8,37.59,259.22,51s15.39,39.27,8.15,77.48-20.89,76-23.74,89.07-5,26.62-5,26.62-2.91,28.82-2.11,44-5.3,52.9-5.3,52.9-3.19,42.21-15.4,57-27.32,12.45-32.3,1-8.41-11.85-10.41-50.93c0,0-.82-39.79-4.89-53.26s-5.76-22.46-16.31-25.55S136.56,284,136.56,284s-6.48,18.47-7.62,45.47-.49,64.8-14.35,74.28S89.21,402,89.21,402s-11-9.65-16.28-43.43-7.35-47.67-7.77-63.14-.5-52-6.6-75-18.89-68.17-18.89-68.17-13.56-43.55-7.53-71.8S46.06,42.17,67.32,31.69C67.32,31.69,94.69,18.44,130.65,34.55Z" transform="translate(-3.32 -4.72)"/><path class="cls-16" d="M132.92,32.28s9.51,3.85,14.54,8.61,10.79,5,17.32,0,35.63-13.78,54.79-13.31,32.5,7.74,41.92,21.11,15.39,39.27,8.15,77.48-20.89,76-23.74,89.07-5,26.62-5,26.62-2.91,28.82-2.11,44-5.3,52.9-5.3,52.9-3.19,42.21-15.4,57-27.32,12.45-32.3,1-8.41-11.85-10.41-50.93c0,0-.82-39.79-4.89-53.26s-5.76-22.46-16.31-25.55-15.4,14.64-15.4,14.64-6.48,18.47-7.62,45.47-.49,64.8-14.35,74.28-25.37-1.76-25.37-1.76-11-9.65-16.28-43.43-7.35-47.67-7.77-63.14-.5-52-6.6-75-18.89-68.17-18.89-68.17-13.56-43.55-7.53-71.8S48.33,39.9,69.59,29.41C69.59,29.41,97,16.17,132.92,32.28Z" transform="translate(-3.32 -4.72)"/><path class="cls-17" d="M135.2,30s9.51,3.85,14.54,8.61,10.79,5,17.32,0,35.63-13.78,54.79-13.31,32.5,7.74,41.92,21.11,15.39,39.27,8.15,77.48S251,199.92,248.18,213s-5,26.62-5,26.62-2.91,28.82-2.11,44-5.3,52.9-5.3,52.9-3.19,42.21-15.4,57-27.32,12.45-32.3,1-8.41-11.85-10.41-50.93c0,0-.82-39.79-4.89-53.26s-5.76-22.46-16.31-25.55-15.4,14.64-15.4,14.64-6.48,18.47-7.62,45.47-.49,64.8-14.35,74.28-25.37-1.76-25.37-1.76-11-9.65-16.28-43.43-7.35-47.67-7.77-63.14-.5-52-6.6-75-18.89-68.17-18.89-68.17-13.56-43.55-7.53-71.8S50.61,37.62,71.86,27.14C71.86,27.14,99.23,13.9,135.2,30Z" transform="translate(-3.32 -4.72)"/><path class="cls-18" d="M137.47,27.73S147,31.58,152,36.34s10.79,5,17.32,0S205,22.56,224.11,23s32.5,7.74,41.92,21.11,15.39,39.27,8.15,77.48-20.89,76-23.74,89.07-5,26.62-5,26.62-2.91,28.82-2.11,44-5.3,52.9-5.3,52.9-3.19,42.21-15.4,57-27.32,12.45-32.3,1S182,380.41,180,341.33c0,0-.82-39.79-4.89-53.26s-5.76-22.46-16.31-25.55-15.4,14.64-15.4,14.64-6.48,18.47-7.62,45.47-.49,64.8-14.35,74.28S96,395.14,96,395.14s-11-9.65-16.28-43.43S72.4,304,72,288.57s-.5-52-6.6-75S46.49,145.4,46.49,145.4,32.93,101.85,39,73.6,52.88,35.35,74.14,24.87C74.14,24.87,101.51,11.63,137.47,27.73Z" transform="translate(-3.32 -4.72)"/><path class="cls-19" d="M139.74,25.46s9.51,3.85,14.54,8.61,10.79,5,17.32,0,35.63-13.78,54.79-13.31,32.5,7.74,41.92,21.11,15.39,39.27,8.15,77.48-20.89,76-23.74,89.07-5,26.62-5,26.62-2.91,28.82-2.11,44-5.3,52.9-5.3,52.9-3.19,42.21-15.4,57-27.32,12.45-32.3,1-8.41-11.85-10.41-50.93c0,0-.82-39.79-4.89-53.26s-5.76-22.46-16.31-25.55-15.4,14.64-15.4,14.64-6.48,18.47-7.62,45.47-.49,64.8-14.35,74.28-25.37-1.76-25.37-1.76-11-9.65-16.28-43.43-7.35-47.67-7.77-63.14-.5-52-6.6-75-18.89-68.17-18.89-68.17-13.56-43.55-7.53-71.8S55.15,33.08,76.41,22.59C76.41,22.59,103.78,9.35,139.74,25.46Z" transform="translate(-3.32 -4.72)"/><path class="cls-20" d="M142,23.19s9.51,3.85,14.54,8.61,10.79,5,17.32,0S209.5,18,228.66,18.48s32.5,7.74,41.92,21.11,15.39,39.27,8.15,77.48-20.89,76-23.74,89.07-5,26.62-5,26.62-2.91,28.82-2.11,44-5.3,52.9-5.3,52.9-3.19,42.21-15.4,57-27.32,12.45-32.3,1-8.41-11.85-10.41-50.93c0,0-.82-39.79-4.89-53.26s-5.76-22.46-16.31-25.55-15.4,14.64-15.4,14.64-6.48,18.47-7.62,45.47-.49,64.8-14.35,74.28-25.37-1.76-25.37-1.76-11-9.65-16.28-43.43S76.95,299.5,76.53,284s-.5-52-6.6-75S51,140.86,51,140.86,37.48,97.3,43.51,69.06,57.43,30.8,78.68,20.32C78.68,20.32,106.05,7.08,142,23.19Z" transform="translate(-3.32 -4.72)"/><path class="cls-21" d="M144.29,20.91s9.51,3.85,14.54,8.61,10.79,5,17.32,0,35.63-13.78,54.79-13.31,32.5,7.74,41.92,21.11S288.24,76.59,281,114.8s-20.89,76-23.74,89.07-5,26.62-5,26.62-2.91,28.82-2.11,44-5.3,52.9-5.3,52.9-3.19,42.21-15.4,57-27.32,12.45-32.3,1-8.41-11.85-10.41-50.93c0,0-.82-39.79-4.89-53.26s-5.76-22.46-16.31-25.55-15.4,14.64-15.4,14.64-6.48,18.47-7.62,45.47-.49,64.8-14.35,74.28-25.37-1.76-25.37-1.76-11-9.65-16.28-43.43-7.35-47.67-7.77-63.14-.5-52-6.6-75-18.89-68.17-18.89-68.17S39.75,95,45.78,66.78,59.7,28.53,81,18C81,18,108.33,4.81,144.29,20.91Z" transform="translate(-3.32 -4.72)"/><path class="cls-22" d="M146.56,18.64s9.51,3.85,14.54,8.61,10.79,5,17.32,0S214,13.47,233.21,13.94s32.5,7.74,41.92,21.11,15.39,39.27,8.15,77.48-20.89,76-23.74,89.07-5,26.62-5,26.62-2.91,28.82-2.11,44-5.3,52.9-5.3,52.9-3.19,42.21-15.4,57-27.32,12.45-32.3,1-8.41-11.85-10.41-50.93c0,0-.82-39.79-4.89-53.26s-5.76-22.46-16.31-25.55-15.4,14.64-15.4,14.64-6.48,18.47-7.62,45.47-.49,64.8-14.35,74.28-25.37-1.76-25.37-1.76-11-9.65-16.28-43.43-7.35-47.67-7.77-63.14-.5-52-6.6-75-18.89-68.17-18.89-68.17S42,92.76,48.05,64.51,62,26.26,83.23,15.78C83.23,15.78,110.6,2.53,146.56,18.64Z" transform="translate(-3.32 -4.72)"/><path class="cls-23" d="M148.84,16.37s9.51,3.85,14.54,8.61,10.79,5,17.32,0,35.63-13.78,54.79-13.31S268,19.4,277.4,32.77s15.39,39.27,8.15,77.48-20.89,76-23.74,89.07-5,26.62-5,26.62-2.91,28.82-2.11,44-5.3,52.9-5.3,52.9-3.19,42.21-15.4,57-27.32,12.45-32.3,1S193.34,369,191.35,330c0,0-.82-39.79-4.89-53.26s-5.76-22.46-16.31-25.55-15.4,14.64-15.4,14.64-6.48,18.47-7.62,45.47-.49,64.8-14.35,74.28-25.37-1.76-25.37-1.76-11-9.65-16.28-43.43-7.35-47.67-7.77-63.14-.5-52-6.6-75S57.86,134,57.86,134,44.3,90.48,50.33,62.24,64.24,24,85.5,13.5C85.5,13.5,112.87.26,148.84,16.37Z" transform="translate(-3.32 -4.72)"/><path class="cls-24" d="M151.11,14.09s9.51,3.85,14.54,8.61,10.79,5,17.32,0S218.59,8.93,237.75,9.39s32.5,7.74,41.92,21.11,15.39,39.27,8.15,77.48-20.89,76-23.74,89.07-5,26.62-5,26.62-2.91,28.82-2.11,44-5.3,52.9-5.3,52.9-3.19,42.21-15.4,57-27.32,12.45-32.3,1-8.41-11.85-10.41-50.93c0,0-.82-39.79-4.89-53.26S183,252,172.42,248.88,157,263.52,157,263.52,150.53,282,149.4,309s-.49,64.8-14.35,74.28-25.37-1.76-25.37-1.76-11-9.65-16.28-43.43S86,290.4,85.63,274.93s-.5-52-6.6-75-18.89-68.17-18.89-68.17S46.57,88.21,52.6,60,66.52,21.71,87.78,11.23C87.78,11.23,115.15-2,151.11,14.09Z" transform="translate(-3.32 -4.72)"/></g><path class="cls-25" d="M153.88,12.71s9.51,3.85,14.54,8.61,10.79,5,17.32,0S221.36,7.54,240.52,8s32.5,7.74,41.92,21.11,15.39,39.27,8.15,77.48-20.89,76-23.74,89.07-5,26.62-5,26.62-2.91,28.82-2.11,44-5.3,52.9-5.3,52.9-3.19,42.21-15.4,57-27.32,12.45-32.3,1-8.41-11.85-10.41-50.93c0,0-.82-39.79-4.89-53.26s-5.76-22.46-16.31-25.55-15.4,14.64-15.4,14.64-6.48,18.47-7.62,45.47-.49,64.8-14.35,74.28-25.37-1.76-25.37-1.76-11-9.65-16.28-43.43S88.8,289,88.39,273.55s-.5-52-6.6-75S62.9,130.38,62.9,130.38s-13.56-43.55-7.53-71.8S69.28,20.33,90.54,9.85C90.54,9.85,117.91-3.4,153.88,12.71Z" transform="translate(-3.32 -4.72)"/><path class="cls-26" d="M152.49,14.09S162,17.94,167,22.7s10.79,5,17.32,0S220,8.93,239.14,9.39s32.5,7.74,41.92,21.11,15.39,39.27,8.15,77.48-20.89,76-23.74,89.07-5,26.62-5,26.62-2.91,28.82-2.11,44-5.3,52.9-5.3,52.9-3.19,42.21-15.4,57-27.32,12.45-32.3,1S197,366.78,195,327.69c0,0-.82-39.79-4.89-53.26S184.35,252,173.8,248.88s-15.4,14.64-15.4,14.64S151.92,282,150.78,309s-.49,64.8-14.35,74.28-25.37-1.76-25.37-1.76-11-9.65-16.28-43.43S87.42,290.4,87,274.93s-.5-52-6.6-75-18.89-68.17-18.89-68.17S48,88.21,54,60,67.9,21.71,89.16,11.23C89.16,11.23,116.53-2,152.49,14.09Z" transform="translate(-3.32 -4.72)"/></g></g></svg>